<?xml version="1.0" encoding="utf-8"?>
<svg viewBox="0 0 500 500" xmlns="http://www.w3.org/2000/svg" xmlns:xlink="http://www.w3.org/1999/xlink" xmlns:bx="https://boxy-svg.com">
  <defs>
    <linearGradient id="color-0" bx:pinned="true">
      <title>底部阴影</title>
      <stop style="stop-color: rgb(20, 14, 64);"/>
    </linearGradient>
    <linearGradient id="color-1" bx:pinned="true">
      <title>星星</title>
      <stop style="stop-color: rgb(250, 245, 113);"/>
    </linearGradient>
    <linearGradient id="gradient-0" bx:pinned="true">
      <title>底部主色</title>
      <stop offset="0" style="stop-color: rgb(128, 61, 143);"/>
      <stop offset="1" style="stop-color: rgb(41, 25, 92);"/>
    </linearGradient>
    <linearGradient id="gradient-1" bx:pinned="true">
      <title>底部边缘高光</title>
      <stop offset="0" style="stop-color: rgb(234, 169, 219);"/>
      <stop offset="1" style="stop-color: rgb(84, 46, 126);"/>
    </linearGradient>
    <linearGradient id="gradient-2" bx:pinned="true">
      <title>底部边缘</title>
      <stop offset="0" style="stop-color: rgb(39, 24, 85);"/>
      <stop offset="1" style="stop-color: rgb(34, 20, 82);"/>
    </linearGradient>
    <linearGradient id="gradient-3" bx:pinned="true">
      <title>顶部阴影</title>
      <stop offset="0" style="stop-color: rgb(143, 68, 149);"/>
      <stop offset="1" style="stop-color: rgb(42, 25, 93);"/>
    </linearGradient>
    <linearGradient id="gradient-4" bx:pinned="true">
      <title>顶部主体</title>
      <stop offset="0" style="stop-color: rgb(199, 106, 200);"/>
      <stop offset="1" style="stop-color: rgb(93, 48, 129);"/>
    </linearGradient>
    <linearGradient id="gradient-2-0" gradientUnits="userSpaceOnUse" x1="197.475" y1="208.5" x2="197.475" y2="368.949" gradientTransform="matrix(0.487545, -1.158857, 2.284213, 0.960995, -508.662734, 336.22923)" xlink:href="#gradient-2"/>
    <linearGradient id="gradient-1-0" gradientUnits="userSpaceOnUse" x1="197.78" y1="208.5" x2="197.78" y2="365.293" gradientTransform="matrix(0.512196, -1.148173, 2.255901, 1.006346, -498.248035, 318.220506)" xlink:href="#gradient-1"/>
    <linearGradient id="gradient-0-0" gradientUnits="userSpaceOnUse" x1="198.715" y1="213.374" x2="198.715" y2="362.223" gradientTransform="matrix(0.527457, -1.141244, 2.261369, 1.045154, -507.133497, 307.383319)" xlink:href="#gradient-0"/>
    <linearGradient id="gradient-4-0" gradientUnits="userSpaceOnUse" x1="266.424" y1="54.848" x2="266.424" y2="318.687" gradientTransform="matrix(0.772286, -0.992078, 0.911237, 0.754226, -108.646738, 336.794514)" xlink:href="#gradient-4"/>
    <linearGradient id="gradient-3-0" gradientUnits="userSpaceOnUse" x1="238.969" y1="61.241" x2="238.969" y2="287.446" gradientTransform="matrix(0.708489, -1.038601, 1.039399, 0.728565, -98.808108, 354.59082)" xlink:href="#gradient-3"/>
    <linearGradient id="gradient-3-1" gradientUnits="userSpaceOnUse" x1="264.151" y1="66.466" x2="264.151" y2="314.248" gradientTransform="matrix(0.655935, -1.072567, 1.047468, 0.622713, -96.763351, 383.263947)" xlink:href="#gradient-3"/>
    <linearGradient id="gradient-6" bx:pinned="true">
      <title>star</title>
      <stop offset="0" style="stop-color: rgb(249, 255, 200);"/>
      <stop offset="0.669" style="stop-color: rgb(212, 255, 0);"/>
      <stop offset="1" style="stop-color: rgb(192, 221, 42);"/>
    </linearGradient>
    <linearGradient id="gradient-6-0" gradientUnits="userSpaceOnUse" x1="248.121" y1="55.087" x2="248.121" y2="298.685" gradientTransform="matrix(0.973643, -0.795402, 0.844145, 1.067992, -124.049079, 233.963046)" xlink:href="#gradient-6"/>
  </defs>
  <path style="pointer-events: none; paint-order: fill; fill: url(#gradient-2-0);" d="M 69.616 299.225 C 69.616 299.225 62.475 314.51 64.446 326.959 C 67.006 343.12 76.317 367.187 86.357 379.5 C 96.397 391.816 98.387 394.398 106.206 400.084 C 114.023 405.773 122.86 414.897 132.631 425.009 C 142.401 435.122 174.357 447.488 181.841 450.688 C 189.323 453.885 221.918 461.123 234.579 465.814 C 247.236 470.501 308.095 478.873 315.393 480.117 C 322.692 481.361 377.186 482.564 387.515 481.463 C 397.843 480.364 416.652 476.404 420.843 470.834 C 425.034 465.264 434.496 458.941 426.656 440.669 C 418.818 422.398 413.358 424.237 399.875 398.896 C 386.396 373.559 381.811 367.997 369.314 362.18 C 356.817 356.365 286.712 323.443 277.705 317.064 C 268.698 310.683 201.904 286.645 191.595 284.655 C 181.286 282.666 157.824 279.885 145.163 280.198 C 132.502 280.511 113.481 283.801 101.724 285.754 C 89.968 287.708 78.143 288.908 69.616 299.225 Z" transform="matrix(0.938628, -0.344932, 0.344932, 0.938628, -116.279031, 108.543368)">
    <title>帽子底部边缘</title>
  </path>
  <path style="pointer-events: none; fill: url(#gradient-1-0);" d="M 69.721 299.186 C 69.721 299.186 60.117 317.991 69.685 338.647 C 77.488 355.499 77.994 365.755 88.008 378.039 C 98.021 390.322 102.668 392.091 110.464 397.762 C 118.262 403.435 125.818 412.261 136.761 421.812 C 147.703 431.362 178.917 442.706 186.381 445.9 C 193.846 449.088 226.354 457.067 238.979 461.745 C 251.606 466.423 311.452 473.452 318.731 474.695 C 326.011 475.935 374.448 478.105 384.748 477.007 C 395.052 475.911 416.011 473.178 420.19 467.624 C 424.368 462.065 430.435 453.934 425.787 441.672 C 421.137 429.409 413.109 424.835 399.428 399.986 C 385.745 375.138 379.986 369.058 368.834 362.721 C 357.681 356.384 286.26 323.342 277.277 316.979 C 268.292 310.615 201.671 286.638 191.388 284.652 C 181.104 282.669 157.706 279.894 145.075 280.206 C 132.448 280.518 113.473 283.801 101.747 285.75 C 90.02 287.697 78.226 288.896 69.721 299.186 Z" transform="matrix(0.938628, -0.344932, 0.344932, 0.938628, -115.515757, 108.253351)">
    <title>帽子底部边缘1</title>
  </path>
  <path style="pointer-events: none; fill: url(#gradient-0-0);" d="M 78.868 304.048 C 78.868 304.048 69.032 319.197 78.276 338.941 C 85.813 355.045 86.11 366.374 95.782 378.114 C 105.451 389.85 109.938 391.541 117.469 396.963 C 125.004 402.381 132.303 410.814 142.874 419.941 C 153.443 429.069 183.591 439.911 190.801 442.959 C 198.011 446.006 229.413 453.631 241.607 458.101 C 253.803 462.573 311.608 469.288 318.639 470.476 C 325.67 471.661 372.459 473.735 382.409 472.686 C 392.358 471.638 412.603 469.026 416.64 463.719 C 420.677 458.409 423.728 448.944 419.641 439.129 C 415.557 429.313 408.69 425.533 396.472 401.551 C 384.254 377.57 377.806 369.529 367.034 363.476 C 356.26 357.42 287.276 325.843 278.597 319.763 C 269.92 313.682 205.569 290.767 195.636 288.871 C 185.703 286.975 161.644 285.576 149.446 285.874 C 137.25 286.173 121.88 288.487 110.551 290.351 C 99.224 292.21 87.082 294.211 78.868 304.048 Z" transform="matrix(0.938628, -0.344932, 0.344932, 0.938628, -115.651278, 108.809245)">
    <title>帽子底部边缘2</title>
  </path>
  <path style="pointer-events: none; fill: url(#color-0);" d="M 272.351 309.06 C 281.028 315.144 350.013 346.718 360.786 352.777 C 371.56 358.83 378.006 366.868 390.224 390.851 C 401.277 412.546 407.951 417.706 412.15 425.763 C 409.956 423.728 407.201 421.565 404.849 420.922 C 400.071 419.614 376.884 415.733 372.196 416.379 C 367.508 417.022 345.405 419.794 337.882 420.653 C 330.357 421.509 283.945 422.041 274.458 421.374 C 264.974 420.705 212.551 407.462 206.818 404.683 C 201.086 401.903 171.453 381.714 168.832 379.204 C 166.213 376.699 145.033 352.7 142.726 348.666 C 140.421 344.633 135.749 334.416 136.374 329.949 C 137.001 325.479 138.317 320.097 143.14 318.789 C 146.138 317.976 190.237 301.491 223.216 289.118 C 244.058 296.54 267.37 305.571 272.351 309.06 Z" transform="matrix(0.938628, -0.344932, 0.344932, 0.938628, -106.462209, 116.528689)">
    <title>顶部阴影</title>
  </path>
  <path style="pointer-events: none; fill: url(#gradient-4-0);" d="M 308.623 78.709 C 308.623 78.709 344.325 68.71 348.074 67.835 C 351.827 66.965 376.22 64.872 380.192 64.966 C 384.164 65.057 405.495 68.482 412.35 68.431 C 419.206 68.382 437.209 70.763 444.59 70.352 C 451.973 69.942 468.367 69.869 469.006 72.334 C 469.648 74.8 457.711 77.991 451.973 78.628 C 446.237 79.263 424.548 84.066 422.476 83.736 C 420.404 83.406 409.746 91.514 404.638 93.253 C 399.528 94.991 388.157 97.819 388.157 97.819 C 388.157 97.819 383.491 111.141 379.019 114.572 C 374.549 118 354.508 131.336 352.04 133.173 C 349.569 135.008 333.426 144.207 333.641 146.249 C 333.855 148.29 336.876 156.428 335.451 160.935 C 334.026 165.443 330.072 172.842 326.453 175.865 C 322.834 178.889 308.941 190.906 307.197 193.488 C 305.452 196.067 304.943 198.696 306.765 202.232 C 308.588 205.766 312.695 212.727 312.829 219.73 C 312.966 226.733 312.276 231.938 309.788 238.28 C 307.296 244.622 306.127 256.472 306.127 256.472 C 306.127 256.472 317.85 266.124 319.78 268.159 C 321.708 270.196 324.828 279.377 325.064 285.543 C 325.298 291.713 323.026 312.932 321.447 319.928 C 319.866 326.925 318.245 337.567 317.035 342.603 C 315.827 347.642 313.15 362.449 312.821 365.877 C 312.49 369.306 310.033 381.945 306.805 385.147 C 303.579 388.346 295.065 392.414 289.959 394.365 C 284.855 396.314 264.26 396.555 258.081 396.667 C 251.903 396.779 214.396 392.926 207.878 391.451 C 201.362 389.974 174.928 384.718 171.221 382.12 C 167.516 379.521 154.535 376.708 145.791 371.099 C 137.047 365.491 126.179 358.288 123.889 354.689 C 121.597 351.09 110.084 341.058 107.29 335.434 C 104.496 329.812 100.779 323.513 99.41 317.278 C 98.043 311.041 100.546 305.505 105.602 298.751 C 110.659 291.997 131.193 278.215 134.945 273.526 C 138.697 268.838 141.052 259.51 144.174 252.414 C 147.296 245.32 154.21 226.888 157.886 219.465 C 161.562 212.044 170.056 201.641 174.291 199.218 C 178.527 196.797 186.167 193.933 186.167 193.933 C 186.167 193.933 193.616 182.473 200.526 175.55 C 207.433 168.63 211.268 160.42 219.175 152.65 C 227.085 144.879 239.676 133.503 243.059 128.434 C 246.44 123.365 257.055 112.743 260.365 108.423 C 263.675 104.102 273.033 95.622 282.01 90.074 C 290.984 84.525 308.345 78.881 308.623 78.709 Z" transform="matrix(0.938628, -0.344932, 0.344932, 0.938628, -62.183897, 112.138522)">
    <title>顶部边缘</title>
  </path>
  <path style="pointer-events: none; fill: url(#gradient-3-0);" d="M 384.239 85.919 C 384.239 85.919 365.532 89.305 355.929 92.394 C 351.193 93.917 340.969 98.265 340.969 98.265 C 340.969 98.265 327.882 104.344 322.126 105.73 C 318.357 106.637 311.854 101.739 310.205 104.222 C 308.428 106.896 311.977 119.191 311.977 119.191 C 311.977 119.191 304.92 115.351 302.16 115.795 C 299.401 116.237 281.134 125.699 281.134 125.699 C 281.134 125.699 267.389 134.308 264.051 136.988 C 260.712 139.67 255.755 143.645 252.208 147.27 C 248.589 150.964 241.973 153.382 242.276 159.287 C 242.582 165.19 250.138 174.329 250.138 174.329 C 250.138 174.329 241.246 166.712 236.797 170.072 C 232.347 173.431 228.282 185.235 228.282 185.235 C 228.282 185.235 226.453 188.904 223.805 194.394 C 221.155 199.881 222.965 199.932 223.777 203.987 C 224.589 208.046 231.575 213.628 231.64 213.628 C 231.703 213.628 218.455 205.003 212.482 204.573 C 206.512 204.144 198.094 204.038 197.322 209.95 C 196.547 215.86 205.447 223.539 206.008 225.123 C 206.569 226.709 219.271 242.747 219.462 242.873 C 219.651 243.001 205.544 232.348 202.408 229.722 C 199.272 227.095 188.966 217.166 186.709 219.066 C 184.451 220.968 189.256 227.122 190.652 229.973 C 192.045 232.827 196.576 240.118 195.35 244.122 C 194.123 248.126 191.266 253.973 186.997 262.851 C 182.733 271.727 181.872 275.364 179.844 282.305 C 177.814 289.247 176.809 294.752 173.905 296.273 C 171.003 297.794 157.855 295.302 154.759 294.011 C 151.665 292.721 144.81 290.798 144.34 294.157 C 143.868 297.513 152.757 307.316 154.597 309.793 C 156.437 312.268 166.375 320.587 163.482 323.474 C 160.588 326.362 135.679 312.932 132.869 317.591 C 130.059 322.248 158.912 338.811 157.117 341.275 C 155.32 343.738 119.719 325.305 117.094 329.198 C 114.468 333.09 132.847 349.823 134.623 353.753 C 136.4 357.684 143.349 368.62 138.9 370.141 C 134.449 371.663 119.914 357.903 113.402 346.425 C 106.888 334.946 107.804 327.642 109.466 321.997 C 111.126 316.352 126.197 310.152 130.353 306.325 C 134.509 302.495 137.979 293.838 140.533 286.434 C 143.087 279.028 151.813 257.013 154.718 250.582 C 157.623 244.15 163.884 231.796 169.182 225.067 C 174.48 218.335 183.615 216.922 183.615 216.922 C 183.615 216.922 191.803 206.707 193.592 203.995 C 195.382 201.282 204.232 190.987 207.62 187.702 C 211.009 184.421 225.161 164.849 227.188 163.299 C 229.218 161.753 258.207 126.79 260.735 125.33 C 263.264 123.874 274.631 111.93 283.34 108.078 C 292.05 104.222 305.845 97.987 314.733 95.774 C 323.621 93.562 340.116 89.631 348.9 88.318 C 357.683 87.006 384.413 85.561 384.239 85.919 Z" transform="matrix(0.938628, -0.344932, 0.344932, 0.938628, -63.552381, 98.935491)">
    <title>顶部左侧阴影</title>
  </path>
  <path style="pointer-events: none; fill: url(#gradient-3-1);" d="M 416.944 81.229 C 418.462 84.965 388.236 93.918 388.236 93.918 C 388.236 93.918 384.182 104.908 380.152 108.621 C 376.121 112.335 357.345 127.929 353.817 129.168 C 350.29 130.407 338.87 137.531 336.906 133.361 C 334.944 129.193 328.917 113.63 328.917 113.63 L 330.463 132.129 C 330.463 132.129 330.661 140.139 330.907 141.874 C 331.155 143.608 333.387 148.371 332.148 156.481 C 330.912 164.594 323.646 172.211 318.104 177.221 C 312.559 182.229 306.59 190.399 301.328 189.985 C 296.064 189.574 278.326 181.747 278.326 181.747 C 278.326 181.747 290.759 194.602 293.234 196.087 C 295.711 197.572 307.175 206.065 308.798 218.438 C 310.418 230.813 305.676 249.026 302.749 259.538 C 299.822 270.051 312.944 291.855 314.503 290.143 C 308.369 278.56 305.863 261.363 307.931 261.439 C 307.931 261.439 319.647 270.009 322.619 279.679 C 325.59 289.35 318.173 329.202 316.024 338.496 C 313.877 347.789 308.756 380.239 297.318 385.968 C 285.886 391.698 233.208 393.087 217.415 390.646 C 201.623 388.204 159.224 373.023 153.769 366.143 C 148.316 359.265 147.589 346.753 150.52 342.143 C 153.451 337.531 162.373 339.973 172.108 343.784 C 181.841 347.589 191.816 349.243 193.348 344.584 C 194.88 339.926 178.549 331.968 173.636 327.686 C 168.724 323.402 161.777 319.559 164.612 315.864 C 167.45 312.17 187.826 323.556 191.249 319.87 C 194.668 316.183 168.097 302.043 168.608 297.926 C 169.119 293.81 175.423 297.101 179.26 294.325 C 183.099 291.547 189.723 272.627 192.741 265.675 C 195.762 258.725 201.569 229.382 212.6 233.275 C 223.635 237.166 226.379 238.028 236.5 242.346 C 246.619 246.665 267.461 260.243 267.584 260.163 C 273.841 256.316 238.75 235.395 233.092 230.04 C 227.432 224.686 207.789 201.079 210.811 200.163 C 213.833 199.246 234.61 210.5 239.446 206.929 C 244.283 203.359 234.255 192.031 235.878 184.561 C 237.498 177.091 243.764 162.664 247.359 163.16 C 250.952 163.656 266.344 171.277 265.691 169.033 C 265.04 166.788 253.577 151.537 259.433 144.166 C 265.285 136.793 273.897 128.192 279.85 124.404 C 285.801 120.615 305.976 106.301 311.33 109.897 C 316.684 113.493 324.546 135.467 325.704 133.195 C 327.26 131.295 319.591 105.901 319.835 102.43 C 320.077 98.958 333.473 95.66 335.951 95.155 C 338.431 94.651 356.41 84.715 366.05 83.745 C 375.691 82.774 381.909 81.527 391.721 81.103 C 401.536 80.678 416.205 79.411 416.944 81.229 Z" transform="matrix(0.938628, -0.344932, 0.344932, 0.938628, -64.053675, 112.070889)">
    <title>顶部右侧阴影</title>
  </path>
  <path style="pointer-events: none; fill: url(#gradient-6-0);" d="M 216.304 161.35 C 216.811 160.85 217.339 160.337 217.882 159.813 L 220.693 164.332 L 234.243 164.263 L 225.618 174.965 L 229.848 188.125 L 217.247 183.057 L 206.315 191.259 L 207.149 177.424 L 204.762 175.665 C 208.175 170.989 211.481 166.088 216.304 161.35 Z M 151.692 328.411 L 138.573 326.705 L 130.068 336.949 L 127.485 323.697 L 115.242 318.516 L 126.767 312.029 L 127.696 298.582 L 137.403 307.829 L 150.226 304.697 L 144.7 316.899 Z M 223.495 371.392 L 211.323 361.201 L 196.115 366.079 L 202.054 351.009 L 193.009 337.868 L 208.851 338.743 L 218.469 325.743 L 222.32 341.358 L 237.309 346.462 L 223.85 355.236 Z M 265.799 320.82 L 256.519 306.85 L 239.894 309.803 L 250.371 296.295 L 242.777 281.3 L 258.533 286.923 L 270.464 274.699 L 269.727 291.682 L 284.693 299.126 L 268.48 303.998 Z M 175.303 261.558 L 168.957 255.574 L 160.881 259.031 L 164.6 250.954 L 158.985 244.25 L 167.631 245.244 L 172.235 237.645 L 173.862 246.337 L 182.321 248.342 L 174.679 252.719 Z M 261.401 229.072 L 251.067 220.255 L 238.091 224.551 L 243.289 211.702 L 235.448 200.531 L 248.992 201.408 L 257.121 190.209 L 260.298 203.6 L 273.161 207.848 L 261.578 215.25 Z M 304.589 190.756 L 297.798 184.967 L 289.273 187.786 L 292.686 179.341 L 287.534 172.004 L 296.434 172.581 L 301.776 165.221 L 303.864 174.021 L 312.317 176.814 L 304.706 181.675 Z M 288.38 150.005 L 278.323 141.426 L 265.696 145.604 L 270.754 133.1 L 263.123 122.231 L 276.303 123.083 L 284.217 112.187 L 287.305 125.217 L 299.824 129.351 L 288.553 136.552 Z M 391.321 91.574 L 386.282 84.985 L 377.986 85.885 L 382.735 78.882 L 380.651 73.963 C 383.962 74.342 388.929 75.023 393.916 75.657 L 393.929 76.226 L 401.066 80.414 L 393.198 83.346 Z M 306.241 327.94 L 307.216 317.055 L 298.795 309.986 L 309.655 307.425 L 313.998 297.327 L 319.734 306.631 L 321.494 306.762 C 320.964 312.53 320.2 318.942 319.463 323.705 L 315.786 322.211 Z M 283.72 320.079 C 306.562 331.374 309.311 362.005 288.666 375.213 C 278.244 381.879 264.539 381.896 253.518 375.254 C 281.877 374.163 298.081 344.555 283.72 320.079 Z M 221.146 295.507 C 195.966 291.599 184.135 263.211 199.856 244.41 C 207.79 234.92 220.861 230.783 233.365 233.802 C 206.65 243.371 200.091 276.479 221.146 295.507 Z" transform="matrix(0.938628, -0.344932, 0.344932, 0.938628, -62.488254, 102.982683)">
    <title>星星与月亮</title>
  </path>
  <path style="pointer-events: none; fill-opacity: 0.19;" d="M 382.871 102.959 C 380.453 105.189 372.722 111.698 366.163 116.815 C 363.314 118.676 359.803 121.246 356.579 123.491 C 356.564 123.495 356.55 123.5 356.537 123.505 C 354.469 124.234 349.686 126.981 345.69 128.291 C 343.036 128.073 340.116 127.585 340.116 127.585 C 340.116 127.585 339.94 127.644 339.655 127.757 C 339.646 127.739 339.635 127.719 339.626 127.698 C 338.635 125.592 336.602 120.576 334.84 116.129 C 335.385 116.05 336.014 116.064 336.739 116.18 C 340.88 116.848 340.873 119.364 350.566 115.486 C 360.255 111.607 355.344 114.24 363.3 109.82 C 371.258 105.402 378.708 101.7 380.765 100.567 C 382.119 99.821 385.604 97.186 387.772 95.56 C 386.946 97.215 386.01 98.907 385.028 100.35 L 383.849 101.924 C 383.524 102.311 383.198 102.66 382.871 102.959 Z M 333.181 126.468 C 333.181 126.468 333.38 134.476 333.627 136.212 C 333.704 136.751 333.974 137.583 334.269 138.72 C 334.339 139.256 334.461 139.801 334.659 140.378 C 335.127 142.624 335.478 145.658 335.041 149.52 C 334.965 149.901 334.878 150.251 334.779 150.565 C 333.993 153.053 332.707 158.944 328.173 162.725 C 323.637 166.503 324.423 167.1 320.325 171.132 C 317.42 173.988 316.792 175.122 315.805 176.545 C 311.799 180.662 307.75 184.615 304.047 184.324 C 303.07 184.247 301.667 183.916 300.023 183.427 C 296.334 182.101 291.287 180.415 288.688 178.871 C 286.026 177.286 284.261 175.373 281.418 176.251 C 281.177 176.146 281.043 176.087 281.043 176.087 C 281.043 176.087 281.118 176.164 281.256 176.305 C 280.7 176.492 280.106 176.789 279.456 177.209 C 275.358 179.868 270.468 181.765 265.732 188.21 C 260.998 194.658 256.894 200.811 258.288 204.669 C 259.682 208.525 263.723 215.425 267.977 218.754 C 272.231 222.084 281.755 224.757 283.215 228.022 C 284.671 231.282 290.562 234.621 290.905 237.71 C 291.249 240.801 291.619 245.508 289.494 250.127 C 287.366 254.747 284.792 257.886 283.873 262.489 C 282.953 267.09 279.905 275.44 279.819 280.547 C 279.731 285.655 281.323 297.427 283.38 300.696 C 285.436 303.963 286.548 307.955 290.4 310.553 C 294.248 313.148 296.474 315.148 298.705 316.777 C 300.933 318.407 292.215 321 288.289 322.801 C 284.364 324.601 278.543 325.521 278.543 325.521 C 278.543 325.521 269.012 325.885 270.729 328.03 C 272.442 330.176 281.997 335.059 284.317 336.86 C 286.64 338.66 298.831 346.866 293.161 348.667 C 287.491 350.467 276.326 352.427 272.139 352.855 C 267.954 353.287 255.481 350.394 265.175 358.025 C 274.869 365.656 284.075 369.014 285.621 371.073 C 287.166 373.132 290.505 376.454 288.498 379.371 C 287.084 381.427 287.481 382.801 286.32 383.609 C 269.216 386.028 242.463 386.677 227.252 385.695 C 224.818 384.965 223.082 384.14 223.082 384.14 C 223.082 384.14 235.288 381.498 239.562 381.148 C 243.834 380.8 250.053 377.956 250.13 375.076 C 250.207 372.196 245.846 368.272 243.143 366.18 C 240.439 364.086 226.344 360.389 223.638 357.773 C 220.935 355.153 217.514 354.836 214.29 351.284 C 211.069 347.731 212.878 344.862 216.05 342.245 C 219.221 339.627 229.96 336.186 234.383 335.488 C 238.808 334.791 239.629 333.855 244.019 331.971 C 248.408 330.086 252.156 329.654 248.667 327.213 C 245.18 324.769 241.806 324.094 237.689 322.868 C 233.574 321.638 230.207 320.456 227.417 319.497 C 224.626 318.537 219.341 317.444 216.811 315.438 C 214.284 313.43 210.523 310.403 219.694 310.031 C 228.868 309.659 241.3 306.75 243.532 306.577 C 245.764 306.401 247.829 306.737 253.37 304.28 C 258.91 301.822 259.229 301.399 263.711 296.938 C 268.195 292.473 267.508 286.596 267.508 286.596 C 267.508 286.596 269.044 279.295 269.781 275.975 C 270.519 272.658 265.598 268.657 265.598 268.657 C 265.598 268.657 264.848 267.886 256.999 264.844 C 249.152 261.803 243.725 259.722 237.606 255.794 C 231.485 251.861 225.437 248.209 222.995 245.416 C 220.555 242.625 216.67 239.42 214.814 234.989 C 213.478 231.802 213.24 228.115 216.581 228.056 C 219.258 228.998 221.426 229.756 223.354 230.442 C 229.649 233.632 238 237.092 243.984 238.964 C 254.741 244.52 270.196 254.569 270.302 254.499 C 273.877 252.302 263.949 244.526 253.727 237.266 C 253.324 236.117 252.062 234.809 249.738 233.646 C 244.708 231.132 236.158 224.205 231.783 220.145 C 225.869 213.574 216.953 202.605 214.115 197.396 C 214.29 196.352 215.094 195.056 217.035 195.14 C 218.145 195.5 219.445 195.972 220.858 196.505 C 221.195 196.701 221.546 196.92 221.912 197.167 C 228.971 201.905 234.148 205.333 234.148 205.333 C 234.148 205.333 245.497 213.71 248.757 210.483 C 252.017 207.256 252.426 200.145 255.486 194.513 C 258.546 188.88 265.786 181.669 267.532 178.005 C 269.28 174.342 275.069 175.545 272.451 169.633 C 270.813 165.929 269.234 164.578 268.327 163.144 C 268.227 162.904 268.062 162.587 267.848 162.199 C 267.615 161.591 267.506 160.894 267.546 159.965 C 267.719 156.13 268.314 156.513 273.468 160.027 C 278.618 163.542 290.985 169.664 295.096 166.701 C 299.208 163.737 305.138 165.195 307.89 158.511 C 310.645 151.827 315.947 151.342 321.741 145.942 C 327.538 140.542 327.957 138.712 328.742 134.794 C 329.525 130.871 331.231 127.596 331.399 122.886 C 331.48 120.661 331.751 118.896 332.45 117.721 Z" transform="matrix(0.938628, -0.344932, 0.344932, 0.938628, -64.652955, 118.324049)">
    <title>顶部暗部</title>
  </path>
</svg>