<?xml version="1.0" encoding="utf-8"?>
<svg viewBox="0 0 600 200" xmlns="http://www.w3.org/2000/svg">
  <path d="M 156.527 79.379 C 156.387 81.132 155.777 82.702 154.697 84.089 C 153.617 85.476 152.42 86.692 151.107 87.739 C 149.787 88.786 148.52 89.629 147.307 90.269 C 146.087 90.909 145.344 91.299 145.077 91.439 C 143.857 92.179 142.507 92.939 141.027 93.719 C 139.54 94.492 137.984 95.216 136.357 95.889 C 134.737 96.569 133.084 97.112 131.397 97.519 C 129.71 97.919 128.057 98.119 126.437 98.119 C 123.464 98.119 121.13 97.596 119.437 96.549 C 117.75 95.502 116.45 94.136 115.537 92.449 C 114.63 90.762 113.99 88.906 113.617 86.879 C 113.244 84.852 112.87 82.859 112.497 80.899 C 112.13 78.939 111.694 77.149 111.187 75.529 C 110.68 73.909 109.817 72.659 108.597 71.779 C 107.857 71.239 106.694 70.852 105.107 70.619 C 103.52 70.379 101.847 70.259 100.087 70.259 C 98.874 70.259 97.71 70.292 96.597 70.359 C 95.484 70.426 94.487 70.512 93.607 70.619 C 92.727 70.719 92 70.802 91.427 70.869 C 90.854 70.936 90.534 71.002 90.467 71.069 C 89.587 71.542 88.91 72.489 88.437 73.909 C 87.964 75.329 87.577 76.882 87.277 78.569 C 86.97 80.256 86.75 81.946 86.617 83.639 C 86.477 85.326 86.307 86.676 86.107 87.689 C 85.7 90.522 85.127 93.359 84.387 96.199 C 83.64 99.032 83.267 101.732 83.267 104.299 C 83.267 105.046 83.487 106.179 83.927 107.699 C 84.367 109.219 84.94 110.789 85.647 112.409 C 86.36 114.029 87.137 115.532 87.977 116.919 C 88.824 118.306 89.654 119.232 90.467 119.699 C 91.074 120.039 91.917 120.259 92.997 120.359 C 94.077 120.466 95.227 120.519 96.447 120.519 C 97.66 120.519 98.874 120.536 100.087 120.569 C 101.307 120.602 102.387 120.719 103.327 120.919 C 105.154 121.326 106.98 121.849 108.807 122.489 C 110.627 123.129 112.434 123.772 114.227 124.419 C 116.014 125.059 117.787 125.599 119.547 126.039 C 121.3 126.479 123.02 126.699 124.707 126.699 C 127.88 126.699 130.534 126.156 132.667 125.069 C 134.794 123.989 137.004 122.402 139.297 120.309 C 139.904 119.702 140.46 119.079 140.967 118.439 C 141.474 117.799 142.017 117.189 142.597 116.609 C 143.17 116.036 143.827 115.566 144.567 115.199 C 145.314 114.826 146.194 114.639 147.207 114.639 C 148.96 114.639 150.157 115.416 150.797 116.969 C 151.437 118.522 151.757 120.446 151.757 122.739 C 151.757 127.872 150.847 132.536 149.027 136.729 C 147.2 140.916 143.754 144.426 138.687 147.259 C 137.814 147.799 136.854 148.036 135.807 147.969 C 134.76 147.902 133.764 148.072 132.817 148.479 C 131.597 149.086 130.55 149.829 129.677 150.709 C 128.797 151.589 127.867 152.432 126.887 153.239 C 125.907 154.052 124.777 154.746 123.497 155.319 C 122.21 155.892 120.624 156.179 118.737 156.179 C 116.977 156.179 115.1 155.826 113.107 155.119 C 111.114 154.406 108.97 153.712 106.677 153.039 C 105.664 152.766 104.65 152.596 103.637 152.529 C 102.624 152.462 101.644 152.429 100.697 152.429 C 99.75 152.429 98.857 152.396 98.017 152.329 C 97.17 152.262 96.41 152.092 95.737 151.819 C 94.384 151.346 92.777 150.536 90.917 149.389 C 89.064 148.242 87.124 146.926 85.097 145.439 C 83.07 143.952 80.977 142.416 78.817 140.829 C 76.65 139.242 74.59 137.772 72.637 136.419 C 71.01 135.339 69.69 134.462 68.677 133.789 C 67.664 133.109 66.804 132.399 66.097 131.659 C 65.39 130.919 64.714 129.989 64.067 128.869 C 63.427 127.756 62.634 126.219 61.687 124.259 C 60.74 122.306 59.947 120.569 59.307 119.049 C 58.667 117.529 58.347 116.159 58.347 114.939 C 58.347 112.979 58.48 110.736 58.747 108.209 C 59.02 105.676 59.157 103.126 59.157 100.559 C 59.157 98.459 59.057 96.379 58.857 94.319 C 58.65 92.259 58.547 90.182 58.547 88.089 C 58.547 84.309 58.954 80.729 59.767 77.349 C 59.967 76.742 60.37 76.152 60.977 75.579 C 61.59 75.006 62.097 74.346 62.497 73.599 C 62.97 72.592 63.41 71.496 63.817 70.309 C 64.224 69.129 64.647 67.966 65.087 66.819 C 65.527 65.666 65.98 64.566 66.447 63.519 C 66.92 62.472 67.464 61.546 68.077 60.739 C 68.817 59.792 69.847 58.576 71.167 57.089 C 72.48 55.602 73.914 54.149 75.467 52.729 C 77.02 51.316 78.557 50.086 80.077 49.039 C 81.597 47.986 82.93 47.459 84.077 47.459 C 86.177 47.459 88.457 47.696 90.917 48.169 C 93.384 48.642 95.664 48.879 97.757 48.879 C 99.177 48.879 100.24 48.746 100.947 48.479 C 101.66 48.206 102.22 47.866 102.627 47.459 C 103.027 47.059 103.347 46.639 103.587 46.199 C 103.82 45.759 104.207 45.336 104.747 44.929 C 105.287 44.522 106.047 44.186 107.027 43.919 C 108.007 43.646 109.41 43.509 111.237 43.509 C 112.317 43.509 113.497 43.542 114.777 43.609 C 116.064 43.682 117.384 43.786 118.737 43.919 C 121.77 44.186 124.437 44.319 126.737 44.319 C 129.03 44.319 131.074 44.439 132.867 44.679 C 134.654 44.912 136.29 45.369 137.777 46.049 C 139.264 46.722 140.75 47.852 142.237 49.439 C 143.724 51.026 145.31 53.186 146.997 55.919 C 148.69 58.659 150.617 62.189 152.777 66.509 C 153.184 67.389 153.604 68.436 154.037 69.649 C 154.477 70.869 154.884 72.086 155.257 73.299 C 155.63 74.512 155.934 75.662 156.167 76.749 C 156.407 77.829 156.527 78.706 156.527 79.379 ZM 250.951 134.189 C 250.678 134.802 250.271 135.379 249.731 135.919 C 249.191 136.459 248.601 136.999 247.961 137.539 C 247.321 138.079 246.645 138.636 245.931 139.209 C 245.225 139.782 244.535 140.476 243.861 141.289 C 242.715 142.636 241.785 144.119 241.071 145.739 C 240.365 147.366 239.571 148.649 238.691 149.589 C 238.691 149.656 238.371 149.942 237.731 150.449 C 237.091 150.956 236.381 151.482 235.601 152.029 C 234.828 152.569 234.135 153.076 233.521 153.549 C 232.915 154.016 232.678 154.216 232.811 154.149 C 232.205 154.489 231.548 154.676 230.841 154.709 C 230.128 154.742 229.335 154.759 228.461 154.759 C 226.841 154.759 225.085 154.659 223.191 154.459 C 221.298 154.252 219.408 154.149 217.521 154.149 C 215.628 154.149 213.735 154.452 211.841 155.059 C 209.948 155.672 208.025 155.979 206.071 155.979 C 204.378 155.979 202.721 156.012 201.101 156.079 C 199.481 156.146 197.828 156.179 196.141 156.179 C 192.221 156.179 188.591 155.942 185.251 155.469 C 181.905 154.996 178.848 154.066 176.081 152.679 C 173.308 151.299 170.825 149.392 168.631 146.959 C 166.438 144.526 164.598 141.386 163.111 137.539 C 162.771 136.726 162.551 135.829 162.451 134.849 C 162.351 133.869 162.285 132.839 162.251 131.759 C 162.218 130.679 162.181 129.582 162.141 128.469 C 162.108 127.356 162.025 126.292 161.891 125.279 C 161.351 122.572 160.828 120.242 160.321 118.289 C 159.815 116.329 159.561 114.506 159.561 112.819 C 159.561 110.992 160.035 109.336 160.981 107.849 C 161.928 106.362 163.228 105.096 164.881 104.049 C 166.535 103.002 168.461 102.192 170.661 101.619 C 172.855 101.046 175.201 100.759 177.701 100.759 C 179.048 100.759 180.178 100.792 181.091 100.859 C 182.005 100.926 182.918 101.112 183.831 101.419 C 184.738 101.719 185.718 102.226 186.771 102.939 C 187.818 103.646 189.151 104.642 190.771 105.929 C 191.378 106.602 192.171 107.226 193.151 107.799 C 194.131 108.372 194.788 108.862 195.121 109.269 C 195.595 109.876 195.951 110.586 196.191 111.399 C 196.425 112.206 196.678 113.049 196.951 113.929 C 197.218 114.809 197.555 115.619 197.961 116.359 C 198.368 117.106 198.941 117.712 199.681 118.179 C 200.361 118.926 201.105 119.469 201.911 119.809 C 202.725 120.142 203.485 120.496 204.191 120.869 C 204.905 121.242 205.495 121.732 205.961 122.339 C 206.435 122.946 206.671 123.856 206.671 125.069 C 206.671 125.682 206.638 126.259 206.571 126.799 C 206.505 127.339 206.471 127.879 206.471 128.419 C 206.471 129.499 206.741 130.446 207.281 131.259 C 207.821 132.066 208.531 132.756 209.411 133.329 C 210.291 133.902 211.238 134.326 212.251 134.599 C 213.265 134.866 214.241 134.999 215.181 134.999 C 216.401 134.999 217.635 134.799 218.881 134.399 C 220.135 133.992 221.301 133.366 222.381 132.519 C 223.461 131.679 224.338 130.632 225.011 129.379 C 225.691 128.132 226.031 126.696 226.031 125.069 C 226.031 123.789 225.778 122.339 225.271 120.719 C 224.765 119.099 224.511 117.309 224.511 115.349 C 224.511 114.402 224.545 113.406 224.611 112.359 C 224.678 111.312 224.711 110.349 224.711 109.469 C 224.711 107.916 224.051 106.582 222.731 105.469 C 221.418 104.356 219.681 103.359 217.521 102.479 C 215.355 101.599 212.905 100.822 210.171 100.149 C 207.438 99.476 204.668 98.799 201.861 98.119 C 199.061 97.446 196.345 96.739 193.711 95.999 C 191.071 95.252 188.775 94.372 186.821 93.359 C 185.735 92.819 184.668 92.026 183.621 90.979 C 182.575 89.932 181.478 88.969 180.331 88.089 C 178.911 87.009 177.561 86.012 176.281 85.099 C 174.995 84.192 173.861 83.096 172.881 81.809 C 171.908 80.529 171.148 78.976 170.601 77.149 C 170.061 75.329 169.791 72.966 169.791 70.059 C 169.791 64.792 170.501 60.622 171.921 57.549 C 173.341 54.476 175.368 52.092 178.001 50.399 C 180.635 48.712 183.845 47.532 187.631 46.859 C 191.411 46.179 195.631 45.602 200.291 45.129 C 202.385 44.929 204.631 44.712 207.031 44.479 C 209.431 44.239 211.811 44.119 214.171 44.119 C 215.858 44.119 217.885 44.456 220.251 45.129 C 222.618 45.809 224.998 46.822 227.391 48.169 C 229.791 49.522 232.071 51.229 234.231 53.289 C 236.391 55.349 238.081 57.762 239.301 60.529 C 239.641 61.342 239.978 62.036 240.311 62.609 C 240.651 63.182 240.938 63.722 241.171 64.229 C 241.411 64.736 241.598 65.242 241.731 65.749 C 241.865 66.256 241.931 66.882 241.931 67.629 C 241.665 69.249 241.245 70.549 240.671 71.529 C 240.098 72.509 239.338 73.236 238.391 73.709 C 237.445 74.182 236.311 74.486 234.991 74.619 C 233.678 74.752 232.141 74.819 230.381 74.819 C 229.641 74.819 228.985 74.819 228.411 74.819 C 227.838 74.819 227.448 74.752 227.241 74.619 C 225.821 74.346 224.268 73.669 222.581 72.589 C 220.895 71.509 219.171 70.362 217.411 69.149 C 215.658 67.929 213.955 66.796 212.301 65.749 C 210.648 64.702 209.211 64.079 207.991 63.879 C 206.031 63.472 204.275 63.269 202.721 63.269 C 199.615 63.269 197.151 63.892 195.331 65.139 C 193.505 66.392 192.591 67.896 192.591 69.649 C 192.591 70.729 193.148 71.912 194.261 73.199 C 195.375 74.479 196.641 75.679 198.061 76.799 C 199.481 77.912 200.868 78.872 202.221 79.679 C 203.568 80.492 204.445 80.966 204.851 81.099 C 205.391 81.306 206.151 81.376 207.131 81.309 C 208.111 81.236 209.008 81.369 209.821 81.709 C 210.428 81.909 210.968 82.229 211.441 82.669 C 211.915 83.109 212.488 83.396 213.161 83.529 C 214.848 84.069 216.638 84.426 218.531 84.599 C 220.425 84.766 222.215 85.119 223.901 85.659 C 229.035 87.212 233.155 88.869 236.261 90.629 C 239.368 92.382 241.835 94.626 243.661 97.359 C 245.481 100.099 246.848 103.496 247.761 107.549 C 248.675 111.602 249.501 116.666 250.241 122.739 C 250.441 124.499 250.745 125.969 251.151 127.149 C 251.558 128.329 251.761 129.496 251.761 130.649 C 251.761 131.729 251.491 132.909 250.951 134.189 ZM 345.582 134.189 C 345.309 134.802 344.902 135.379 344.362 135.919 C 343.822 136.459 343.232 136.999 342.592 137.539 C 341.952 138.079 341.275 138.636 340.562 139.209 C 339.855 139.782 339.165 140.476 338.492 141.289 C 337.345 142.636 336.415 144.119 335.702 145.739 C 334.995 147.366 334.202 148.649 333.322 149.589 C 333.322 149.656 333.002 149.942 332.362 150.449 C 331.722 150.956 331.012 151.482 330.232 152.029 C 329.459 152.569 328.765 153.076 328.152 153.549 C 327.545 154.016 327.309 154.216 327.442 154.149 C 326.835 154.489 326.179 154.676 325.472 154.709 C 324.759 154.742 323.965 154.759 323.092 154.759 C 321.472 154.759 319.715 154.659 317.822 154.459 C 315.929 154.252 314.039 154.149 312.152 154.149 C 310.259 154.149 308.365 154.452 306.472 155.059 C 304.579 155.672 302.655 155.979 300.702 155.979 C 299.009 155.979 297.352 156.012 295.732 156.079 C 294.112 156.146 292.459 156.179 290.772 156.179 C 286.852 156.179 283.222 155.942 279.882 155.469 C 276.535 154.996 273.479 154.066 270.712 152.679 C 267.939 151.299 265.455 149.392 263.262 146.959 C 261.069 144.526 259.229 141.386 257.742 137.539 C 257.402 136.726 257.182 135.829 257.082 134.849 C 256.982 133.869 256.915 132.839 256.882 131.759 C 256.849 130.679 256.812 129.582 256.772 128.469 C 256.739 127.356 256.655 126.292 256.522 125.279 C 255.982 122.572 255.459 120.242 254.952 118.289 C 254.445 116.329 254.192 114.506 254.192 112.819 C 254.192 110.992 254.665 109.336 255.612 107.849 C 256.559 106.362 257.859 105.096 259.512 104.049 C 261.165 103.002 263.092 102.192 265.292 101.619 C 267.485 101.046 269.832 100.759 272.332 100.759 C 273.679 100.759 274.809 100.792 275.722 100.859 C 276.635 100.926 277.549 101.112 278.462 101.419 C 279.369 101.719 280.349 102.226 281.402 102.939 C 282.449 103.646 283.782 104.642 285.402 105.929 C 286.009 106.602 286.802 107.226 287.782 107.799 C 288.762 108.372 289.419 108.862 289.752 109.269 C 290.225 109.876 290.582 110.586 290.822 111.399 C 291.055 112.206 291.309 113.049 291.582 113.929 C 291.849 114.809 292.185 115.619 292.592 116.359 C 292.999 117.106 293.572 117.712 294.312 118.179 C 294.992 118.926 295.735 119.469 296.542 119.809 C 297.355 120.142 298.115 120.496 298.822 120.869 C 299.535 121.242 300.125 121.732 300.592 122.339 C 301.065 122.946 301.302 123.856 301.302 125.069 C 301.302 125.682 301.269 126.259 301.202 126.799 C 301.135 127.339 301.102 127.879 301.102 128.419 C 301.102 129.499 301.372 130.446 301.912 131.259 C 302.452 132.066 303.162 132.756 304.042 133.329 C 304.922 133.902 305.869 134.326 306.882 134.599 C 307.895 134.866 308.872 134.999 309.812 134.999 C 311.032 134.999 312.265 134.799 313.512 134.399 C 314.765 133.992 315.932 133.366 317.012 132.519 C 318.092 131.679 318.969 130.632 319.642 129.379 C 320.322 128.132 320.662 126.696 320.662 125.069 C 320.662 123.789 320.409 122.339 319.902 120.719 C 319.395 119.099 319.142 117.309 319.142 115.349 C 319.142 114.402 319.175 113.406 319.242 112.359 C 319.309 111.312 319.342 110.349 319.342 109.469 C 319.342 107.916 318.682 106.582 317.362 105.469 C 316.049 104.356 314.312 103.359 312.152 102.479 C 309.985 101.599 307.535 100.822 304.802 100.149 C 302.069 99.476 299.299 98.799 296.492 98.119 C 293.692 97.446 290.975 96.739 288.342 95.999 C 285.702 95.252 283.405 94.372 281.452 93.359 C 280.365 92.819 279.299 92.026 278.252 90.979 C 277.205 89.932 276.109 88.969 274.962 88.089 C 273.542 87.009 272.192 86.012 270.912 85.099 C 269.625 84.192 268.492 83.096 267.512 81.809 C 266.539 80.529 265.779 78.976 265.232 77.149 C 264.692 75.329 264.422 72.966 264.422 70.059 C 264.422 64.792 265.132 60.622 266.552 57.549 C 267.972 54.476 269.999 52.092 272.632 50.399 C 275.265 48.712 278.475 47.532 282.262 46.859 C 286.042 46.179 290.262 45.602 294.922 45.129 C 297.015 44.929 299.262 44.712 301.662 44.479 C 304.062 44.239 306.442 44.119 308.802 44.119 C 310.489 44.119 312.515 44.456 314.882 45.129 C 317.249 45.809 319.629 46.822 322.022 48.169 C 324.422 49.522 326.702 51.229 328.862 53.289 C 331.022 55.349 332.712 57.762 333.932 60.529 C 334.272 61.342 334.609 62.036 334.942 62.609 C 335.282 63.182 335.569 63.722 335.802 64.229 C 336.042 64.736 336.229 65.242 336.362 65.749 C 336.495 66.256 336.562 66.882 336.562 67.629 C 336.295 69.249 335.875 70.549 335.302 71.529 C 334.729 72.509 333.969 73.236 333.022 73.709 C 332.075 74.182 330.942 74.486 329.622 74.619 C 328.309 74.752 326.772 74.819 325.012 74.819 C 324.272 74.819 323.615 74.819 323.042 74.819 C 322.469 74.819 322.079 74.752 321.872 74.619 C 320.452 74.346 318.899 73.669 317.212 72.589 C 315.525 71.509 313.802 70.362 312.042 69.149 C 310.289 67.929 308.585 66.796 306.932 65.749 C 305.279 64.702 303.842 64.079 302.622 63.879 C 300.662 63.472 298.905 63.269 297.352 63.269 C 294.245 63.269 291.782 63.892 289.962 65.139 C 288.135 66.392 287.222 67.896 287.222 69.649 C 287.222 70.729 287.779 71.912 288.892 73.199 C 290.005 74.479 291.272 75.679 292.692 76.799 C 294.112 77.912 295.499 78.872 296.852 79.679 C 298.199 80.492 299.075 80.966 299.482 81.099 C 300.022 81.306 300.782 81.376 301.762 81.309 C 302.742 81.236 303.639 81.369 304.452 81.709 C 305.059 81.909 305.599 82.229 306.072 82.669 C 306.545 83.109 307.119 83.396 307.792 83.529 C 309.479 84.069 311.269 84.426 313.162 84.599 C 315.055 84.766 316.845 85.119 318.532 85.659 C 323.665 87.212 327.785 88.869 330.892 90.629 C 333.999 92.382 336.465 94.626 338.292 97.359 C 340.112 100.099 341.479 103.496 342.392 107.549 C 343.305 111.602 344.132 116.666 344.872 122.739 C 345.072 124.499 345.375 125.969 345.782 127.149 C 346.189 128.329 346.392 129.496 346.392 130.649 C 346.392 131.729 346.122 132.909 345.582 134.189 ZM 444.063 127.299 C 444.196 128.652 444.349 129.902 444.523 131.049 C 444.689 132.196 444.773 133.242 444.773 134.189 C 444.773 135.269 444.706 136.079 444.573 136.619 C 444.433 137.166 444.213 137.639 443.913 138.039 C 443.606 138.446 443.199 138.886 442.693 139.359 C 442.186 139.832 441.563 140.542 440.823 141.489 C 440.009 142.769 439.216 144.119 438.443 145.539 C 437.663 146.959 436.749 148.242 435.703 149.389 C 434.656 150.536 433.439 151.499 432.053 152.279 C 430.673 153.052 429.003 153.439 427.043 153.439 C 425.829 153.439 424.529 153.356 423.143 153.189 C 421.756 153.022 420.369 152.836 418.983 152.629 C 417.603 152.429 416.253 152.246 414.933 152.079 C 413.619 151.906 412.419 151.819 411.333 151.819 C 406.673 151.819 401.963 151.736 397.203 151.569 C 392.443 151.402 387.933 150.812 383.673 149.799 C 382.259 149.392 380.776 149.036 379.223 148.729 C 377.669 148.429 376.116 148.076 374.563 147.669 C 373.009 147.262 371.523 146.772 370.103 146.199 C 368.683 145.626 367.466 144.932 366.453 144.119 C 363.546 141.219 361.233 138.046 359.513 134.599 C 357.793 131.152 356.443 127.269 355.463 122.949 C 354.483 118.622 353.789 113.826 353.383 108.559 C 352.976 103.292 352.639 97.382 352.373 90.829 C 352.233 88.529 351.996 86.332 351.663 84.239 C 351.323 82.146 351.153 80.526 351.153 79.379 C 351.153 78.839 351.406 77.996 351.913 76.849 C 352.419 75.696 352.776 74.612 352.983 73.599 C 353.316 72.119 353.466 70.652 353.433 69.199 C 353.399 67.746 353.449 66.849 353.583 66.509 C 353.789 66.036 354.213 65.479 354.853 64.839 C 355.493 64.199 356.203 63.506 356.983 62.759 C 357.756 62.019 358.533 61.259 359.313 60.479 C 360.086 59.706 360.743 58.946 361.283 58.199 C 361.756 57.526 362.923 56.699 364.783 55.719 C 366.636 54.739 368.949 53.676 371.723 52.529 C 374.489 51.382 377.596 50.252 381.043 49.139 C 384.489 48.019 388.019 47.006 391.633 46.099 C 395.246 45.186 398.859 44.442 402.473 43.869 C 406.086 43.296 409.446 42.976 412.553 42.909 C 413.839 42.909 415.276 43.142 416.863 43.609 C 418.449 44.082 420.036 44.709 421.623 45.489 C 423.209 46.262 424.746 47.156 426.233 48.169 C 427.719 49.182 428.969 50.196 429.983 51.209 C 430.523 51.749 431.029 52.646 431.503 53.899 C 431.976 55.146 432.516 56.176 433.123 56.989 C 434.609 58.882 435.639 60.299 436.213 61.239 C 436.786 62.186 437.156 63.032 437.323 63.779 C 437.496 64.519 437.546 65.329 437.473 66.209 C 437.406 67.089 437.476 68.439 437.683 70.259 C 437.816 71.679 437.916 72.862 437.983 73.809 C 438.049 74.756 438.083 75.632 438.083 76.439 C 438.083 77.252 438.083 78.029 438.083 78.769 C 438.083 79.516 438.083 80.362 438.083 81.309 C 438.083 83.262 437.576 84.849 436.563 86.069 C 435.549 87.282 434.166 88.396 432.413 89.409 C 430.653 90.422 428.543 91.402 426.083 92.349 C 423.616 93.296 420.963 94.442 418.123 95.789 C 415.763 96.942 413.229 97.756 410.523 98.229 C 407.823 98.696 405.326 98.929 403.033 98.929 C 402.693 98.929 402.423 98.929 402.223 98.929 C 402.016 98.929 401.746 98.862 401.413 98.729 C 400.939 98.662 400.126 98.799 398.973 99.139 C 397.826 99.472 396.509 99.859 395.023 100.299 C 393.536 100.739 391.933 101.146 390.213 101.519 C 388.493 101.892 386.819 102.079 385.193 102.079 C 384.113 102.079 383.083 102.229 382.103 102.529 C 381.129 102.836 380.269 103.226 379.523 103.699 C 378.783 104.172 378.193 104.642 377.753 105.109 C 377.313 105.582 377.093 106.022 377.093 106.429 C 377.093 108.796 377.516 110.689 378.363 112.109 C 379.203 113.522 380.129 114.602 381.143 115.349 C 382.363 116.229 383.713 116.836 385.193 117.169 C 386.886 117.916 388.509 118.406 390.063 118.639 C 391.616 118.879 393.169 118.999 394.723 118.999 C 397.289 118.999 399.973 118.796 402.773 118.389 C 405.579 117.982 408.773 117.779 412.353 117.779 C 414.039 117.779 415.473 117.982 416.653 118.389 C 417.839 118.796 419.106 118.999 420.453 118.999 C 421.873 118.999 423.293 118.862 424.713 118.589 C 426.133 118.316 427.483 118.012 428.763 117.679 C 430.049 117.339 431.283 117.036 432.463 116.769 C 433.643 116.496 434.739 116.359 435.753 116.359 C 438.386 116.359 440.296 117.256 441.483 119.049 C 442.663 120.836 443.523 123.586 444.063 127.299 Z M 404.853 80.699 C 404.986 80.359 405.086 79.986 405.153 79.579 C 405.226 79.172 405.263 78.769 405.263 78.369 C 405.263 76.342 405.076 74.536 404.703 72.949 C 404.329 71.362 403.889 70.009 403.383 68.889 C 402.876 67.776 402.319 66.932 401.713 66.359 C 401.106 65.786 400.566 65.499 400.093 65.499 C 398.806 65.499 396.879 65.752 394.313 66.259 C 391.746 66.766 389.146 67.389 386.513 68.129 C 383.879 68.876 381.499 69.689 379.373 70.569 C 377.246 71.442 375.946 72.252 375.473 72.999 C 375.133 73.539 374.896 74.332 374.763 75.379 C 374.629 76.426 374.563 77.622 374.563 78.969 C 374.563 81.809 374.746 84.006 375.113 85.559 C 375.486 87.112 376.146 87.889 377.093 87.889 C 377.699 87.889 378.376 87.789 379.123 87.589 C 379.863 87.382 380.586 87.162 381.293 86.929 C 382.006 86.689 382.649 86.469 383.223 86.269 C 383.796 86.069 384.253 85.932 384.593 85.859 C 386.079 85.592 387.903 85.392 390.063 85.259 C 392.223 85.119 394.333 84.899 396.393 84.599 C 398.453 84.292 400.276 83.852 401.863 83.279 C 403.449 82.706 404.446 81.846 404.853 80.699 ZM 545.581 84.849 C 545.514 85.522 545.331 86.079 545.031 86.519 C 544.724 86.959 544.384 87.466 544.011 88.039 C 543.644 88.612 543.324 89.306 543.051 90.119 C 542.777 90.932 542.641 92.012 542.641 93.359 C 542.641 93.899 542.677 94.372 542.751 94.779 C 542.817 95.186 542.851 95.659 542.851 96.199 C 542.851 98.226 542.394 99.796 541.481 100.909 C 540.567 102.022 539.351 102.919 537.831 103.599 C 536.311 104.272 534.537 104.796 532.511 105.169 C 530.484 105.536 528.391 106.022 526.231 106.629 C 524.677 107.036 523.024 107.509 521.271 108.049 C 519.511 108.589 517.787 108.859 516.101 108.859 C 513.261 108.859 511.251 108.049 510.071 106.429 C 508.891 104.809 508.131 102.766 507.791 100.299 C 507.451 97.832 507.351 95.182 507.491 92.349 C 507.624 89.509 507.607 86.859 507.441 84.399 C 507.267 81.932 506.761 79.889 505.921 78.269 C 505.074 76.642 503.504 75.829 501.211 75.829 C 500.264 75.829 499.284 75.999 498.271 76.339 C 497.257 76.679 496.294 77.069 495.381 77.509 C 494.467 77.942 493.624 78.379 492.851 78.819 C 492.071 79.259 491.444 79.582 490.971 79.789 C 489.957 80.256 488.794 80.742 487.481 81.249 C 486.161 81.756 484.894 82.299 483.681 82.879 C 482.461 83.452 481.431 84.092 480.591 84.799 C 479.744 85.506 479.321 86.332 479.321 87.279 C 479.321 88.832 479.674 90.809 480.381 93.209 C 481.094 95.609 481.854 98.006 482.661 100.399 C 483.474 102.799 484.234 104.929 484.941 106.789 C 485.654 108.642 486.011 109.806 486.011 110.279 C 486.011 110.752 485.907 111.209 485.701 111.649 C 485.501 112.089 485.401 112.612 485.401 113.219 C 485.401 114.166 485.517 115.179 485.751 116.259 C 485.991 117.339 486.261 118.469 486.561 119.649 C 486.867 120.836 487.157 122.052 487.431 123.299 C 487.697 124.552 487.831 125.819 487.831 127.099 C 487.831 127.506 487.797 128.366 487.731 129.679 C 487.664 130.999 487.564 132.419 487.431 133.939 C 487.291 135.459 487.104 136.912 486.871 138.299 C 486.631 139.679 486.344 140.676 486.011 141.289 C 485.671 141.829 485.264 142.232 484.791 142.499 C 484.317 142.772 483.811 142.992 483.271 143.159 C 482.731 143.326 482.157 143.496 481.551 143.669 C 480.944 143.836 480.301 144.122 479.621 144.529 C 478.141 145.476 477.061 146.336 476.381 147.109 C 475.707 147.889 475.051 148.566 474.411 149.139 C 473.764 149.712 472.951 150.169 471.971 150.509 C 470.997 150.842 469.461 151.009 467.361 151.009 C 464.461 151.009 462.031 150.656 460.071 149.949 C 458.111 149.236 456.524 148.119 455.311 146.599 C 454.091 145.086 453.227 143.146 452.721 140.779 C 452.214 138.412 451.961 135.609 451.961 132.369 C 451.961 130.142 452.147 127.929 452.521 125.729 C 452.894 123.536 453.334 121.326 453.841 119.099 C 454.347 116.866 454.854 114.619 455.361 112.359 C 455.867 110.092 456.254 107.746 456.521 105.319 C 456.861 102.072 457.151 98.576 457.391 94.829 C 457.624 91.082 457.741 87.586 457.741 84.339 C 457.741 81.639 457.537 78.602 457.131 75.229 C 456.997 74.416 456.761 73.602 456.421 72.789 C 456.087 71.982 455.921 71.206 455.921 70.459 C 455.921 69.446 456.037 68.366 456.271 67.219 C 456.511 66.072 456.781 64.926 457.081 63.779 C 457.387 62.626 457.674 61.459 457.941 60.279 C 458.214 59.099 458.384 57.936 458.451 56.789 C 458.451 55.636 458.297 54.706 457.991 53.999 C 457.691 53.292 457.541 52.566 457.541 51.819 C 457.541 49.926 457.911 48.456 458.651 47.409 C 459.397 46.362 460.174 45.622 460.981 45.189 C 461.794 44.749 462.504 44.496 463.111 44.429 C 463.717 44.356 463.887 44.319 463.621 44.319 C 466.187 44.319 468.194 44.842 469.641 45.889 C 471.094 46.936 472.177 48.239 472.891 49.799 C 473.597 51.352 474.051 53.022 474.251 54.809 C 474.457 56.602 474.627 58.276 474.761 59.829 C 474.894 61.382 475.081 62.682 475.321 63.729 C 475.554 64.776 476.077 65.299 476.891 65.299 C 477.431 65.299 478.124 65.062 478.971 64.589 C 479.811 64.116 480.604 63.609 481.351 63.069 C 482.091 62.529 482.664 62.072 483.071 61.699 C 483.477 61.326 483.544 61.276 483.271 61.549 L 483.071 61.749 C 483.137 61.749 483.204 61.716 483.271 61.649 C 483.477 61.449 483.714 61.279 483.981 61.139 C 483.714 61.279 483.581 61.349 483.581 61.349 L 483.471 61.349 C 484.351 60.669 485.231 59.992 486.111 59.319 C 486.851 58.779 487.661 58.189 488.541 57.549 C 489.421 56.902 490.231 56.379 490.971 55.979 C 492.117 55.232 493.401 54.709 494.821 54.409 C 496.241 54.102 497.524 53.576 498.671 52.829 C 499.684 52.089 500.697 51.279 501.711 50.399 C 502.724 49.526 503.637 48.819 504.451 48.279 C 505.257 47.939 506.254 47.599 507.441 47.259 C 508.621 46.926 509.887 46.639 511.241 46.399 C 512.587 46.166 513.904 45.962 515.191 45.789 C 516.471 45.622 517.617 45.539 518.631 45.539 C 519.577 45.539 520.387 45.692 521.061 45.999 C 521.741 46.299 522.384 46.686 522.991 47.159 C 523.597 47.632 524.254 48.106 524.961 48.579 C 525.674 49.052 526.537 49.422 527.551 49.689 C 528.831 50.096 530.317 50.382 532.011 50.549 C 533.697 50.722 535.267 51.112 536.721 51.719 C 538.174 52.326 539.407 53.322 540.421 54.709 C 541.434 56.096 541.904 58.239 541.831 61.139 C 541.831 62.426 541.967 63.576 542.241 64.589 C 542.507 65.602 542.794 66.512 543.101 67.319 C 543.407 68.132 543.694 68.909 543.961 69.649 C 544.234 70.396 544.371 71.172 544.371 71.979 C 544.371 72.726 544.317 73.519 544.211 74.359 C 544.111 75.206 544.061 76.069 544.061 76.949 C 544.061 78.296 544.314 79.729 544.821 81.249 C 545.327 82.769 545.581 83.969 545.581 84.849 Z" transform="matrix(1, 0, 0, 1, 0, 0)" style="fill: rgb(120, 58, 138); white-space: pre;"/>
</svg>