<?xml version="1.0" encoding="utf-8"?>
<svg viewBox="0 0 600 150" xmlns="http://www.w3.org/2000/svg" xmlns:xlink="http://www.w3.org/1999/xlink">
  <defs>
    <linearGradient id="color-0">
      <title>底部阴影</title>
      <stop style="stop-color: rgb(20, 14, 64);"/>
    </linearGradient>
    <linearGradient id="gradient-0">
      <title>底部主色</title>
      <stop offset="0" style="stop-color: rgb(128, 61, 143);"/>
      <stop offset="1" style="stop-color: rgb(41, 25, 92);"/>
    </linearGradient>
    <linearGradient id="gradient-1">
      <title>底部边缘高光</title>
      <stop offset="0" style="stop-color: rgb(234, 169, 219);"/>
      <stop offset="1" style="stop-color: rgb(84, 46, 126);"/>
    </linearGradient>
    <linearGradient id="gradient-2">
      <title>底部边缘</title>
      <stop offset="0" style="stop-color: rgb(39, 24, 85);"/>
      <stop offset="1" style="stop-color: rgb(34, 20, 82);"/>
    </linearGradient>
    <linearGradient id="gradient-3">
      <title>顶部阴影</title>
      <stop offset="0" style="stop-color: rgb(143, 68, 149);"/>
      <stop offset="1" style="stop-color: rgb(42, 25, 93);"/>
    </linearGradient>
    <linearGradient id="gradient-4">
      <title>顶部主体</title>
      <stop offset="0" style="stop-color: rgb(199, 106, 200);"/>
      <stop offset="1" style="stop-color: rgb(93, 48, 129);"/>
    </linearGradient>
    <linearGradient id="gradient-2-0" gradientUnits="userSpaceOnUse" x1="197.475" y1="208.5" x2="197.475" y2="368.949" gradientTransform="matrix(0.148492, -0.352954, 0.695706, 0.292691, -37.551207, 194.258219)" xlink:href="#gradient-2"/>
    <linearGradient id="gradient-1-0" gradientUnits="userSpaceOnUse" x1="197.78" y1="208.5" x2="197.78" y2="365.293" gradientTransform="matrix(0.156, -0.3497, 0.687083, 0.306504, -34.379218, 188.773272)" xlink:href="#gradient-1"/>
    <linearGradient id="gradient-0-0" gradientUnits="userSpaceOnUse" x1="198.715" y1="213.374" x2="198.715" y2="362.223" gradientTransform="matrix(0.160648, -0.34759, 0.688748, 0.318324, -37.085371, 185.472666)" xlink:href="#gradient-0"/>
    <linearGradient id="gradient-4-0" gradientUnits="userSpaceOnUse" x1="266.424" y1="54.848" x2="266.424" y2="318.687" gradientTransform="matrix(0.235216, -0.302158, 0.277537, 0.229716, 84.282105, 194.430356)" xlink:href="#gradient-4"/>
    <linearGradient id="gradient-3-0" gradientUnits="userSpaceOnUse" x1="238.969" y1="61.241" x2="238.969" y2="287.446" gradientTransform="matrix(0.215785, -0.316328, 0.316571, 0.2219, 87.27871, 199.850629)" xlink:href="#gradient-3"/>
    <linearGradient id="gradient-3-1" gradientUnits="userSpaceOnUse" x1="264.151" y1="66.466" x2="264.151" y2="314.248" gradientTransform="matrix(0.199779, -0.326673, 0.319029, 0.18966, 87.901523, 208.583655)" xlink:href="#gradient-3"/>
    <linearGradient id="gradient-6">
      <title>star</title>
      <stop offset="0" style="stop-color: rgb(249, 255, 200);"/>
      <stop offset="0.669" style="stop-color: rgb(212, 255, 0);"/>
      <stop offset="1" style="stop-color: rgb(192, 221, 42);"/>
    </linearGradient>
    <linearGradient id="gradient-6-0" gradientUnits="userSpaceOnUse" x1="248.121" y1="55.087" x2="248.121" y2="298.685" gradientTransform="matrix(0.296544, -0.242257, 0.257102, 0.32528, 79.590931, 163.110904)" xlink:href="#gradient-6"/>
  </defs>
  <path d="M 280.819 73.372 C 280.739 74.365 280.395 75.252 279.789 76.032 C 279.175 76.812 278.499 77.499 277.759 78.092 C 277.012 78.685 276.299 79.162 275.619 79.522 C 274.932 79.882 274.512 80.102 274.359 80.182 C 273.672 80.602 272.909 81.029 272.069 81.462 C 271.229 81.902 270.352 82.312 269.439 82.692 C 268.525 83.072 267.592 83.379 266.639 83.612 C 265.685 83.839 264.752 83.952 263.839 83.952 C 262.159 83.952 260.842 83.655 259.889 83.062 C 258.935 82.475 258.202 81.705 257.689 80.752 C 257.175 79.799 256.812 78.749 256.599 77.602 C 256.392 76.462 256.182 75.339 255.969 74.232 C 255.762 73.125 255.515 72.115 255.229 71.202 C 254.942 70.289 254.455 69.582 253.769 69.082 C 253.349 68.782 252.692 68.565 251.799 68.432 C 250.905 68.299 249.962 68.232 248.969 68.232 C 248.282 68.232 247.625 68.249 246.999 68.282 C 246.365 68.322 245.802 68.372 245.309 68.432 C 244.815 68.485 244.405 68.532 244.079 68.572 C 243.759 68.612 243.579 68.649 243.539 68.682 C 243.045 68.949 242.662 69.482 242.389 70.282 C 242.122 71.089 241.905 71.965 241.739 72.912 C 241.565 73.865 241.442 74.819 241.369 75.772 C 241.289 76.725 241.192 77.489 241.079 78.062 C 240.852 79.662 240.529 81.262 240.109 82.862 C 239.689 84.469 239.479 85.995 239.479 87.442 C 239.479 87.862 239.602 88.499 239.849 89.352 C 240.095 90.212 240.419 91.099 240.819 92.012 C 241.219 92.925 241.659 93.775 242.139 94.562 C 242.612 95.342 243.079 95.865 243.539 96.132 C 243.879 96.319 244.355 96.442 244.969 96.502 C 245.575 96.562 246.222 96.592 246.909 96.592 C 247.595 96.592 248.282 96.602 248.969 96.622 C 249.655 96.635 250.265 96.702 250.799 96.822 C 251.825 97.049 252.855 97.342 253.889 97.702 C 254.915 98.062 255.935 98.425 256.949 98.792 C 257.955 99.152 258.955 99.455 259.949 99.702 C 260.935 99.949 261.905 100.072 262.859 100.072 C 264.652 100.072 266.149 99.769 267.349 99.162 C 268.549 98.549 269.799 97.652 271.099 96.472 C 271.439 96.132 271.752 95.779 272.039 95.412 C 272.325 95.052 272.632 94.712 272.959 94.392 C 273.279 94.065 273.649 93.795 274.069 93.582 C 274.489 93.375 274.985 93.272 275.559 93.272 C 276.545 93.272 277.222 93.712 277.589 94.592 C 277.949 95.465 278.129 96.549 278.129 97.842 C 278.129 100.742 277.615 103.372 276.589 105.732 C 275.555 108.099 273.609 110.082 270.749 111.682 C 270.255 111.989 269.715 112.122 269.129 112.082 C 268.535 112.042 267.972 112.139 267.439 112.372 C 266.752 112.712 266.162 113.132 265.669 113.632 C 265.169 114.125 264.642 114.599 264.089 115.052 C 263.535 115.512 262.899 115.905 262.179 116.232 C 261.452 116.552 260.555 116.712 259.489 116.712 C 258.495 116.712 257.439 116.512 256.319 116.112 C 255.192 115.712 253.982 115.322 252.689 114.942 C 252.115 114.789 251.542 114.692 250.969 114.652 C 250.395 114.619 249.842 114.602 249.309 114.602 C 248.775 114.602 248.272 114.582 247.799 114.542 C 247.319 114.502 246.889 114.405 246.509 114.252 C 245.749 113.985 244.845 113.529 243.799 112.882 C 242.745 112.235 241.649 111.492 240.509 110.652 C 239.362 109.812 238.179 108.945 236.959 108.052 C 235.739 107.159 234.579 106.329 233.479 105.562 C 232.559 104.955 231.815 104.462 231.249 104.082 C 230.675 103.695 230.189 103.295 229.789 102.882 C 229.389 102.462 229.005 101.935 228.639 101.302 C 228.279 100.675 227.832 99.809 227.299 98.702 C 226.765 97.595 226.319 96.615 225.959 95.762 C 225.592 94.902 225.409 94.129 225.409 93.442 C 225.409 92.335 225.485 91.069 225.639 89.642 C 225.792 88.215 225.869 86.775 225.869 85.322 C 225.869 84.142 225.812 82.972 225.699 81.812 C 225.585 80.645 225.529 79.472 225.529 78.292 C 225.529 76.159 225.755 74.139 226.209 72.232 C 226.329 71.885 226.559 71.552 226.899 71.232 C 227.239 70.905 227.525 70.532 227.759 70.112 C 228.025 69.545 228.272 68.925 228.499 68.252 C 228.725 67.585 228.965 66.929 229.219 66.282 C 229.465 65.635 229.722 65.015 229.989 64.422 C 230.255 63.835 230.559 63.312 230.899 62.852 C 231.319 62.319 231.902 61.632 232.649 60.792 C 233.389 59.959 234.199 59.139 235.079 58.332 C 235.952 57.532 236.819 56.839 237.679 56.252 C 238.532 55.659 239.285 55.362 239.939 55.362 C 241.119 55.362 242.405 55.495 243.799 55.762 C 245.185 56.029 246.472 56.162 247.659 56.162 C 248.459 56.162 249.059 56.085 249.459 55.932 C 249.859 55.779 250.172 55.589 250.399 55.362 C 250.625 55.135 250.805 54.899 250.939 54.652 C 251.072 54.399 251.292 54.159 251.599 53.932 C 251.905 53.705 252.335 53.515 252.889 53.362 C 253.442 53.209 254.232 53.132 255.259 53.132 C 255.865 53.132 256.532 53.152 257.259 53.192 C 257.985 53.232 258.729 53.289 259.489 53.362 C 261.202 53.515 262.709 53.592 264.009 53.592 C 265.302 53.592 266.455 53.659 267.469 53.792 C 268.475 53.925 269.399 54.182 270.239 54.562 C 271.079 54.942 271.919 55.582 272.759 56.482 C 273.592 57.375 274.485 58.595 275.439 60.142 C 276.392 61.682 277.479 63.672 278.699 66.112 C 278.932 66.605 279.172 67.195 279.419 67.882 C 279.665 68.569 279.892 69.255 280.099 69.942 C 280.312 70.629 280.485 71.279 280.619 71.892 C 280.752 72.499 280.819 72.992 280.819 73.372 ZM 334.107 104.312 C 333.954 104.652 333.724 104.975 333.417 105.282 C 333.117 105.582 332.784 105.885 332.417 106.192 C 332.057 106.499 331.677 106.815 331.277 107.142 C 330.877 107.462 330.487 107.852 330.107 108.312 C 329.454 109.072 328.927 109.909 328.527 110.822 C 328.127 111.742 327.681 112.469 327.187 113.002 C 327.187 113.035 327.007 113.195 326.647 113.482 C 326.281 113.769 325.881 114.065 325.447 114.372 C 325.007 114.679 324.614 114.965 324.267 115.232 C 323.927 115.499 323.794 115.612 323.867 115.572 C 323.527 115.765 323.157 115.869 322.757 115.882 C 322.357 115.902 321.911 115.912 321.417 115.912 C 320.497 115.912 319.504 115.855 318.437 115.742 C 317.371 115.629 316.304 115.572 315.237 115.572 C 314.171 115.572 313.104 115.742 312.037 116.082 C 310.971 116.429 309.884 116.602 308.777 116.602 C 307.824 116.602 306.891 116.622 305.977 116.662 C 305.064 116.695 304.131 116.712 303.177 116.712 C 300.964 116.712 298.914 116.579 297.027 116.312 C 295.141 116.045 293.414 115.522 291.847 114.742 C 290.287 113.962 288.887 112.885 287.647 111.512 C 286.407 110.139 285.371 108.365 284.537 106.192 C 284.344 105.739 284.217 105.235 284.157 104.682 C 284.104 104.129 284.067 103.545 284.047 102.932 C 284.027 102.325 284.007 101.705 283.987 101.072 C 283.967 100.445 283.921 99.845 283.847 99.272 C 283.541 97.752 283.244 96.439 282.957 95.332 C 282.671 94.225 282.527 93.195 282.527 92.242 C 282.527 91.215 282.797 90.282 283.337 89.442 C 283.871 88.602 284.604 87.889 285.537 87.302 C 286.471 86.709 287.557 86.249 288.797 85.922 C 290.031 85.602 291.354 85.442 292.767 85.442 C 293.527 85.442 294.167 85.459 294.687 85.492 C 295.201 85.532 295.714 85.639 296.227 85.812 C 296.741 85.985 297.294 86.272 297.887 86.672 C 298.474 87.072 299.227 87.632 300.147 88.352 C 300.487 88.732 300.934 89.085 301.487 89.412 C 302.041 89.739 302.411 90.015 302.597 90.242 C 302.864 90.582 303.064 90.982 303.197 91.442 C 303.331 91.902 303.474 92.379 303.627 92.872 C 303.781 93.365 303.974 93.822 304.207 94.242 C 304.434 94.662 304.757 95.005 305.177 95.272 C 305.557 95.692 305.977 95.999 306.437 96.192 C 306.891 96.379 307.317 96.579 307.717 96.792 C 308.117 96.999 308.451 97.275 308.717 97.622 C 308.984 97.962 309.117 98.475 309.117 99.162 C 309.117 99.502 309.101 99.825 309.067 100.132 C 309.027 100.439 309.007 100.745 309.007 101.052 C 309.007 101.659 309.161 102.192 309.467 102.652 C 309.767 103.105 310.167 103.495 310.667 103.822 C 311.161 104.149 311.694 104.385 312.267 104.532 C 312.834 104.685 313.387 104.762 313.927 104.762 C 314.607 104.762 315.301 104.649 316.007 104.422 C 316.714 104.195 317.374 103.842 317.987 103.362 C 318.594 102.889 319.087 102.299 319.467 101.592 C 319.847 100.885 320.037 100.075 320.037 99.162 C 320.037 98.435 319.894 97.615 319.607 96.702 C 319.327 95.789 319.187 94.779 319.187 93.672 C 319.187 93.139 319.204 92.575 319.237 91.982 C 319.277 91.395 319.297 90.852 319.297 90.352 C 319.297 89.479 318.927 88.729 318.187 88.102 C 317.441 87.469 316.457 86.905 315.237 86.412 C 314.017 85.919 312.637 85.479 311.097 85.092 C 309.551 84.712 307.987 84.332 306.407 83.952 C 304.821 83.572 303.284 83.172 301.797 82.752 C 300.311 82.332 299.017 81.835 297.917 81.262 C 297.304 80.962 296.701 80.515 296.107 79.922 C 295.521 79.329 294.904 78.785 294.257 78.292 C 293.457 77.679 292.694 77.115 291.967 76.602 C 291.241 76.089 290.601 75.469 290.047 74.742 C 289.494 74.022 289.067 73.145 288.767 72.112 C 288.461 71.085 288.307 69.752 288.307 68.112 C 288.307 65.139 288.707 62.785 289.507 61.052 C 290.307 59.319 291.451 57.975 292.937 57.022 C 294.424 56.069 296.234 55.402 298.367 55.022 C 300.507 54.642 302.891 54.319 305.517 54.052 C 306.697 53.932 307.964 53.805 309.317 53.672 C 310.671 53.539 312.014 53.472 313.347 53.472 C 314.301 53.472 315.444 53.665 316.777 54.052 C 318.117 54.432 319.464 55.002 320.817 55.762 C 322.171 56.529 323.454 57.492 324.667 58.652 C 325.887 59.812 326.841 61.175 327.527 62.742 C 327.721 63.195 327.914 63.585 328.107 63.912 C 328.294 64.239 328.454 64.542 328.587 64.822 C 328.721 65.109 328.827 65.395 328.907 65.682 C 328.981 65.969 329.017 66.322 329.017 66.742 C 328.864 67.655 328.627 68.389 328.307 68.942 C 327.981 69.495 327.551 69.905 327.017 70.172 C 326.484 70.439 325.844 70.609 325.097 70.682 C 324.357 70.762 323.491 70.802 322.497 70.802 C 322.077 70.802 321.707 70.802 321.387 70.802 C 321.061 70.802 320.841 70.762 320.727 70.682 C 319.927 70.535 319.051 70.155 318.097 69.542 C 317.144 68.935 316.171 68.289 315.177 67.602 C 314.191 66.915 313.231 66.275 312.297 65.682 C 311.357 65.095 310.547 64.742 309.867 64.622 C 308.761 64.395 307.767 64.282 306.887 64.282 C 305.134 64.282 303.744 64.635 302.717 65.342 C 301.684 66.049 301.167 66.895 301.167 67.882 C 301.167 68.495 301.484 69.162 302.117 69.882 C 302.744 70.609 303.457 71.285 304.257 71.912 C 305.057 72.545 305.841 73.089 306.607 73.542 C 307.367 74.002 307.861 74.269 308.087 74.342 C 308.394 74.462 308.824 74.502 309.377 74.462 C 309.931 74.422 310.434 74.499 310.887 74.692 C 311.234 74.805 311.541 74.985 311.807 75.232 C 312.074 75.479 312.397 75.642 312.777 75.722 C 313.731 76.022 314.741 76.222 315.807 76.322 C 316.874 76.415 317.884 76.615 318.837 76.922 C 321.737 77.795 324.064 78.729 325.817 79.722 C 327.571 80.715 328.961 81.982 329.987 83.522 C 331.021 85.069 331.794 86.985 332.307 89.272 C 332.821 91.559 333.287 94.415 333.707 97.842 C 333.821 98.835 333.991 99.665 334.217 100.332 C 334.451 100.999 334.567 101.655 334.567 102.302 C 334.567 102.915 334.414 103.585 334.107 104.312 ZM 387.511 104.312 C 387.358 104.652 387.128 104.975 386.821 105.282 C 386.521 105.582 386.188 105.885 385.821 106.192 C 385.461 106.499 385.081 106.815 384.681 107.142 C 384.281 107.462 383.891 107.852 383.511 108.312 C 382.858 109.072 382.331 109.909 381.931 110.822 C 381.531 111.742 381.085 112.469 380.591 113.002 C 380.591 113.035 380.411 113.195 380.051 113.482 C 379.685 113.769 379.285 114.065 378.851 114.372 C 378.411 114.679 378.018 114.965 377.671 115.232 C 377.331 115.499 377.198 115.612 377.271 115.572 C 376.931 115.765 376.561 115.869 376.161 115.882 C 375.761 115.902 375.315 115.912 374.821 115.912 C 373.901 115.912 372.908 115.855 371.841 115.742 C 370.775 115.629 369.708 115.572 368.641 115.572 C 367.575 115.572 366.508 115.742 365.441 116.082 C 364.375 116.429 363.288 116.602 362.181 116.602 C 361.228 116.602 360.295 116.622 359.381 116.662 C 358.468 116.695 357.535 116.712 356.581 116.712 C 354.368 116.712 352.318 116.579 350.431 116.312 C 348.545 116.045 346.818 115.522 345.251 114.742 C 343.691 113.962 342.291 112.885 341.051 111.512 C 339.811 110.139 338.775 108.365 337.941 106.192 C 337.748 105.739 337.621 105.235 337.561 104.682 C 337.508 104.129 337.471 103.545 337.451 102.932 C 337.431 102.325 337.411 101.705 337.391 101.072 C 337.371 100.445 337.325 99.845 337.251 99.272 C 336.945 97.752 336.648 96.439 336.361 95.332 C 336.075 94.225 335.931 93.195 335.931 92.242 C 335.931 91.215 336.201 90.282 336.741 89.442 C 337.275 88.602 338.008 87.889 338.941 87.302 C 339.875 86.709 340.961 86.249 342.201 85.922 C 343.435 85.602 344.758 85.442 346.171 85.442 C 346.931 85.442 347.571 85.459 348.091 85.492 C 348.605 85.532 349.118 85.639 349.631 85.812 C 350.145 85.985 350.698 86.272 351.291 86.672 C 351.878 87.072 352.631 87.632 353.551 88.352 C 353.891 88.732 354.338 89.085 354.891 89.412 C 355.445 89.739 355.815 90.015 356.001 90.242 C 356.268 90.582 356.468 90.982 356.601 91.442 C 356.735 91.902 356.878 92.379 357.031 92.872 C 357.185 93.365 357.378 93.822 357.611 94.242 C 357.838 94.662 358.161 95.005 358.581 95.272 C 358.961 95.692 359.381 95.999 359.841 96.192 C 360.295 96.379 360.721 96.579 361.121 96.792 C 361.521 96.999 361.855 97.275 362.121 97.622 C 362.388 97.962 362.521 98.475 362.521 99.162 C 362.521 99.502 362.505 99.825 362.471 100.132 C 362.431 100.439 362.411 100.745 362.411 101.052 C 362.411 101.659 362.565 102.192 362.871 102.652 C 363.171 103.105 363.571 103.495 364.071 103.822 C 364.565 104.149 365.098 104.385 365.671 104.532 C 366.238 104.685 366.791 104.762 367.331 104.762 C 368.011 104.762 368.705 104.649 369.411 104.422 C 370.118 104.195 370.778 103.842 371.391 103.362 C 371.998 102.889 372.491 102.299 372.871 101.592 C 373.251 100.885 373.441 100.075 373.441 99.162 C 373.441 98.435 373.298 97.615 373.011 96.702 C 372.731 95.789 372.591 94.779 372.591 93.672 C 372.591 93.139 372.608 92.575 372.641 91.982 C 372.681 91.395 372.701 90.852 372.701 90.352 C 372.701 89.479 372.331 88.729 371.591 88.102 C 370.845 87.469 369.861 86.905 368.641 86.412 C 367.421 85.919 366.041 85.479 364.501 85.092 C 362.955 84.712 361.391 84.332 359.811 83.952 C 358.225 83.572 356.688 83.172 355.201 82.752 C 353.715 82.332 352.421 81.835 351.321 81.262 C 350.708 80.962 350.105 80.515 349.511 79.922 C 348.925 79.329 348.308 78.785 347.661 78.292 C 346.861 77.679 346.098 77.115 345.371 76.602 C 344.645 76.089 344.005 75.469 343.451 74.742 C 342.898 74.022 342.471 73.145 342.171 72.112 C 341.865 71.085 341.711 69.752 341.711 68.112 C 341.711 65.139 342.111 62.785 342.911 61.052 C 343.711 59.319 344.855 57.975 346.341 57.022 C 347.828 56.069 349.638 55.402 351.771 55.022 C 353.911 54.642 356.295 54.319 358.921 54.052 C 360.101 53.932 361.368 53.805 362.721 53.672 C 364.075 53.539 365.418 53.472 366.751 53.472 C 367.705 53.472 368.848 53.665 370.181 54.052 C 371.521 54.432 372.868 55.002 374.221 55.762 C 375.575 56.529 376.858 57.492 378.071 58.652 C 379.291 59.812 380.245 61.175 380.931 62.742 C 381.125 63.195 381.318 63.585 381.511 63.912 C 381.698 64.239 381.858 64.542 381.991 64.822 C 382.125 65.109 382.231 65.395 382.311 65.682 C 382.385 65.969 382.421 66.322 382.421 66.742 C 382.268 67.655 382.031 68.389 381.711 68.942 C 381.385 69.495 380.955 69.905 380.421 70.172 C 379.888 70.439 379.248 70.609 378.501 70.682 C 377.761 70.762 376.895 70.802 375.901 70.802 C 375.481 70.802 375.111 70.802 374.791 70.802 C 374.465 70.802 374.245 70.762 374.131 70.682 C 373.331 70.535 372.455 70.155 371.501 69.542 C 370.548 68.935 369.575 68.289 368.581 67.602 C 367.595 66.915 366.635 66.275 365.701 65.682 C 364.761 65.095 363.951 64.742 363.271 64.622 C 362.165 64.395 361.171 64.282 360.291 64.282 C 358.538 64.282 357.148 64.635 356.121 65.342 C 355.088 66.049 354.571 66.895 354.571 67.882 C 354.571 68.495 354.888 69.162 355.521 69.882 C 356.148 70.609 356.861 71.285 357.661 71.912 C 358.461 72.545 359.245 73.089 360.011 73.542 C 360.771 74.002 361.265 74.269 361.491 74.342 C 361.798 74.462 362.228 74.502 362.781 74.462 C 363.335 74.422 363.838 74.499 364.291 74.692 C 364.638 74.805 364.945 74.985 365.211 75.232 C 365.478 75.479 365.801 75.642 366.181 75.722 C 367.135 76.022 368.145 76.222 369.211 76.322 C 370.278 76.415 371.288 76.615 372.241 76.922 C 375.141 77.795 377.468 78.729 379.221 79.722 C 380.975 80.715 382.365 81.982 383.391 83.522 C 384.425 85.069 385.198 86.985 385.711 89.272 C 386.225 91.559 386.691 94.415 387.111 97.842 C 387.225 98.835 387.395 99.665 387.621 100.332 C 387.855 100.999 387.971 101.655 387.971 102.302 C 387.971 102.915 387.818 103.585 387.511 104.312 ZM 443.085 100.422 C 443.165 101.182 443.252 101.885 443.345 102.532 C 443.438 103.179 443.485 103.772 443.485 104.312 C 443.485 104.919 443.448 105.375 443.375 105.682 C 443.295 105.989 443.172 106.255 443.005 106.482 C 442.832 106.709 442.602 106.955 442.315 107.222 C 442.028 107.489 441.675 107.889 441.255 108.422 C 440.802 109.149 440.355 109.912 439.915 110.712 C 439.475 111.512 438.958 112.235 438.365 112.882 C 437.778 113.529 437.095 114.072 436.315 114.512 C 435.528 114.952 434.585 115.172 433.485 115.172 C 432.798 115.172 432.062 115.125 431.275 115.032 C 430.495 114.932 429.715 114.825 428.935 114.712 C 428.155 114.599 427.392 114.495 426.645 114.402 C 425.905 114.302 425.228 114.252 424.615 114.252 C 421.988 114.252 419.332 114.205 416.645 114.112 C 413.958 114.019 411.412 113.685 409.005 113.112 C 408.205 112.885 407.368 112.685 406.495 112.512 C 405.615 112.339 404.738 112.139 403.865 111.912 C 402.985 111.685 402.145 111.409 401.345 111.082 C 400.545 110.755 399.858 110.365 399.285 109.912 C 397.652 108.272 396.348 106.479 395.375 104.532 C 394.402 102.592 393.638 100.402 393.085 97.962 C 392.532 95.522 392.142 92.815 391.915 89.842 C 391.682 86.869 391.492 83.532 391.345 79.832 C 391.265 78.539 391.132 77.302 390.945 76.122 C 390.752 74.935 390.655 74.019 390.655 73.372 C 390.655 73.065 390.798 72.589 391.085 71.942 C 391.372 71.295 391.572 70.685 391.685 70.112 C 391.878 69.279 391.965 68.452 391.945 67.632 C 391.925 66.812 391.952 66.305 392.025 66.112 C 392.138 65.845 392.378 65.532 392.745 65.172 C 393.105 64.805 393.505 64.415 393.945 64.002 C 394.385 63.582 394.822 63.152 395.255 62.712 C 395.695 62.272 396.068 61.842 396.375 61.422 C 396.642 61.042 397.298 60.575 398.345 60.022 C 399.392 59.469 400.698 58.869 402.265 58.222 C 403.825 57.575 405.578 56.935 407.525 56.302 C 409.465 55.675 411.455 55.105 413.495 54.592 C 415.535 54.079 417.575 53.659 419.615 53.332 C 421.655 53.012 423.552 52.832 425.305 52.792 C 426.032 52.792 426.842 52.925 427.735 53.192 C 428.628 53.459 429.525 53.812 430.425 54.252 C 431.318 54.685 432.185 55.189 433.025 55.762 C 433.865 56.335 434.568 56.909 435.135 57.482 C 435.442 57.782 435.728 58.285 435.995 58.992 C 436.262 59.699 436.568 60.282 436.915 60.742 C 437.748 61.809 438.328 62.609 438.655 63.142 C 438.982 63.675 439.192 64.152 439.285 64.572 C 439.378 64.992 439.408 65.449 439.375 65.942 C 439.335 66.435 439.372 67.199 439.485 68.232 C 439.558 69.032 439.615 69.699 439.655 70.232 C 439.695 70.765 439.715 71.259 439.715 71.712 C 439.715 72.172 439.715 72.612 439.715 73.032 C 439.715 73.452 439.715 73.929 439.715 74.462 C 439.715 75.569 439.428 76.465 438.855 77.152 C 438.282 77.839 437.502 78.465 436.515 79.032 C 435.522 79.605 434.328 80.159 432.935 80.692 C 431.548 81.225 430.052 81.875 428.445 82.642 C 427.112 83.289 425.685 83.745 424.165 84.012 C 422.638 84.279 421.225 84.412 419.925 84.412 C 419.738 84.412 419.588 84.412 419.475 84.412 C 419.362 84.412 419.208 84.372 419.015 84.292 C 418.748 84.259 418.292 84.335 417.645 84.522 C 416.998 84.715 416.255 84.935 415.415 85.182 C 414.575 85.429 413.668 85.659 412.695 85.872 C 411.722 86.079 410.778 86.182 409.865 86.182 C 409.258 86.182 408.678 86.269 408.125 86.442 C 407.572 86.609 407.085 86.825 406.665 87.092 C 406.245 87.365 405.912 87.635 405.665 87.902 C 405.418 88.169 405.295 88.415 405.295 88.642 C 405.295 89.975 405.532 91.042 406.005 91.842 C 406.485 92.642 407.008 93.252 407.575 93.672 C 408.262 94.165 409.025 94.509 409.865 94.702 C 410.818 95.122 411.735 95.399 412.615 95.532 C 413.488 95.665 414.365 95.732 415.245 95.732 C 416.692 95.732 418.205 95.619 419.785 95.392 C 421.365 95.159 423.168 95.042 425.195 95.042 C 426.142 95.042 426.952 95.159 427.625 95.392 C 428.292 95.619 429.005 95.732 429.765 95.732 C 430.565 95.732 431.365 95.655 432.165 95.502 C 432.965 95.349 433.728 95.179 434.455 94.992 C 435.175 94.799 435.872 94.625 436.545 94.472 C 437.212 94.319 437.828 94.242 438.395 94.242 C 439.882 94.242 440.958 94.749 441.625 95.762 C 442.292 96.769 442.778 98.322 443.085 100.422 Z M 420.955 74.122 C 421.035 73.929 421.095 73.719 421.135 73.492 C 421.168 73.259 421.185 73.029 421.185 72.802 C 421.185 71.662 421.082 70.642 420.875 69.742 C 420.662 68.849 420.415 68.085 420.135 67.452 C 419.848 66.825 419.532 66.349 419.185 66.022 C 418.845 65.702 418.542 65.542 418.275 65.542 C 417.548 65.542 416.462 65.685 415.015 65.972 C 413.562 66.259 412.092 66.612 410.605 67.032 C 409.125 67.445 407.782 67.902 406.575 68.402 C 405.375 68.895 404.642 69.352 404.375 69.772 C 404.188 70.079 404.055 70.525 403.975 71.112 C 403.902 71.705 403.865 72.382 403.865 73.142 C 403.865 74.749 403.968 75.989 404.175 76.862 C 404.388 77.742 404.762 78.182 405.295 78.182 C 405.635 78.182 406.015 78.122 406.435 78.002 C 406.855 77.889 407.265 77.765 407.665 77.632 C 408.065 77.499 408.428 77.375 408.755 77.262 C 409.075 77.149 409.332 77.072 409.525 77.032 C 410.365 76.879 411.395 76.765 412.615 76.692 C 413.835 76.612 415.025 76.489 416.185 76.322 C 417.345 76.149 418.375 75.899 419.275 75.572 C 420.168 75.252 420.728 74.769 420.955 74.122 ZM 500.375 76.462 C 500.342 76.842 500.238 77.155 500.065 77.402 C 499.892 77.649 499.702 77.935 499.495 78.262 C 499.282 78.589 499.098 78.979 498.945 79.432 C 498.798 79.892 498.725 80.502 498.725 81.262 C 498.725 81.569 498.742 81.835 498.775 82.062 C 498.815 82.295 498.835 82.562 498.835 82.862 C 498.835 84.009 498.578 84.895 498.065 85.522 C 497.552 86.155 496.865 86.662 496.005 87.042 C 495.145 87.422 494.145 87.715 493.005 87.922 C 491.858 88.135 490.675 88.412 489.455 88.752 C 488.582 88.985 487.648 89.252 486.655 89.552 C 485.662 89.859 484.692 90.012 483.745 90.012 C 482.138 90.012 481.002 89.555 480.335 88.642 C 479.668 87.729 479.242 86.575 479.055 85.182 C 478.862 83.789 478.805 82.292 478.885 80.692 C 478.958 79.092 478.948 77.595 478.855 76.202 C 478.755 74.815 478.468 73.662 477.995 72.742 C 477.515 71.829 476.628 71.372 475.335 71.372 C 474.802 71.372 474.248 71.469 473.675 71.662 C 473.102 71.849 472.558 72.065 472.045 72.312 C 471.532 72.565 471.055 72.815 470.615 73.062 C 470.182 73.309 469.832 73.489 469.565 73.602 C 468.992 73.869 468.332 74.145 467.585 74.432 C 466.845 74.719 466.132 75.022 465.445 75.342 C 464.758 75.669 464.175 76.032 463.695 76.432 C 463.222 76.832 462.985 77.299 462.985 77.832 C 462.985 78.712 463.185 79.829 463.585 81.182 C 463.985 82.535 464.415 83.889 464.875 85.242 C 465.328 86.595 465.755 87.795 466.155 88.842 C 466.555 89.889 466.755 90.545 466.755 90.812 C 466.755 91.079 466.698 91.335 466.585 91.582 C 466.472 91.835 466.415 92.132 466.415 92.472 C 466.415 93.005 466.482 93.575 466.615 94.182 C 466.748 94.795 466.902 95.435 467.075 96.102 C 467.248 96.769 467.408 97.455 467.555 98.162 C 467.708 98.869 467.785 99.582 467.785 100.302 C 467.785 100.535 467.768 101.022 467.735 101.762 C 467.695 102.509 467.635 103.309 467.555 104.162 C 467.482 105.022 467.378 105.842 467.245 106.622 C 467.112 107.402 466.948 107.965 466.755 108.312 C 466.568 108.619 466.342 108.845 466.075 108.992 C 465.808 109.145 465.522 109.272 465.215 109.372 C 464.908 109.465 464.585 109.559 464.245 109.652 C 463.898 109.745 463.535 109.909 463.155 110.142 C 462.315 110.675 461.705 111.162 461.325 111.602 C 460.945 112.035 460.575 112.415 460.215 112.742 C 459.848 113.069 459.388 113.325 458.835 113.512 C 458.288 113.705 457.422 113.802 456.235 113.802 C 454.595 113.802 453.225 113.602 452.125 113.202 C 451.018 112.802 450.122 112.172 449.435 111.312 C 448.748 110.452 448.262 109.355 447.975 108.022 C 447.688 106.689 447.545 105.109 447.545 103.282 C 447.545 102.022 447.652 100.772 447.865 99.532 C 448.072 98.292 448.318 97.045 448.605 95.792 C 448.892 94.532 449.178 93.262 449.465 91.982 C 449.752 90.709 449.968 89.385 450.115 88.012 C 450.308 86.185 450.472 84.212 450.605 82.092 C 450.738 79.979 450.805 78.005 450.805 76.172 C 450.805 74.652 450.692 72.939 450.465 71.032 C 450.385 70.572 450.252 70.115 450.065 69.662 C 449.872 69.202 449.775 68.762 449.775 68.342 C 449.775 67.769 449.842 67.159 449.975 66.512 C 450.108 65.865 450.262 65.219 450.435 64.572 C 450.608 63.919 450.772 63.259 450.925 62.592 C 451.072 61.925 451.165 61.269 451.205 60.622 C 451.205 59.975 451.118 59.452 450.945 59.052 C 450.778 58.652 450.695 58.242 450.695 57.822 C 450.695 56.755 450.905 55.925 451.325 55.332 C 451.738 54.745 452.175 54.325 452.635 54.072 C 453.095 53.825 453.495 53.685 453.835 53.652 C 454.182 53.612 454.278 53.592 454.125 53.592 C 455.572 53.592 456.705 53.889 457.525 54.482 C 458.345 55.069 458.955 55.802 459.355 56.682 C 459.755 57.555 460.012 58.499 460.125 59.512 C 460.238 60.519 460.335 61.462 460.415 62.342 C 460.488 63.215 460.592 63.949 460.725 64.542 C 460.858 65.129 461.155 65.422 461.615 65.422 C 461.915 65.422 462.305 65.289 462.785 65.022 C 463.258 64.755 463.705 64.472 464.125 64.172 C 464.545 63.865 464.872 63.605 465.105 63.392 C 465.332 63.185 465.368 63.159 465.215 63.312 L 465.105 63.422 C 465.138 63.422 465.175 63.405 465.215 63.372 C 465.328 63.252 465.462 63.155 465.615 63.082 C 465.462 63.155 465.385 63.192 465.385 63.192 L 465.325 63.192 C 465.825 62.812 466.322 62.432 466.815 62.052 C 467.235 61.745 467.692 61.412 468.185 61.052 C 468.685 60.692 469.145 60.395 469.565 60.162 C 470.212 59.749 470.935 59.455 471.735 59.282 C 472.535 59.109 473.258 58.812 473.905 58.392 C 474.478 57.972 475.052 57.515 475.625 57.022 C 476.192 56.529 476.705 56.129 477.165 55.822 C 477.625 55.629 478.188 55.439 478.855 55.252 C 479.522 55.059 480.235 54.895 480.995 54.762 C 481.755 54.629 482.498 54.515 483.225 54.422 C 483.952 54.322 484.598 54.272 485.165 54.272 C 485.705 54.272 486.165 54.359 486.545 54.532 C 486.925 54.705 487.285 54.925 487.625 55.192 C 487.972 55.459 488.345 55.725 488.745 55.992 C 489.145 56.259 489.632 56.469 490.205 56.622 C 490.925 56.849 491.762 57.012 492.715 57.112 C 493.668 57.205 494.555 57.422 495.375 57.762 C 496.195 58.109 496.892 58.672 497.465 59.452 C 498.038 60.232 498.305 61.442 498.265 63.082 C 498.265 63.809 498.342 64.455 498.495 65.022 C 498.648 65.595 498.808 66.112 498.975 66.572 C 499.148 67.025 499.312 67.462 499.465 67.882 C 499.618 68.302 499.695 68.742 499.695 69.202 C 499.695 69.622 499.665 70.069 499.605 70.542 C 499.552 71.022 499.525 71.509 499.525 72.002 C 499.525 72.762 499.668 73.572 499.955 74.432 C 500.235 75.292 500.375 75.969 500.375 76.462 Z" transform="matrix(1, 0, 0, 1, 0, 0)" style="fill: rgb(120, 58, 138); white-space: pre;"/>
  <g style="" transform="matrix(0.719235, 0, 0, 0.719235, 6.203083, -37.108089)">
    <path style="paint-order: fill; fill: url(#gradient-2-0);" d="M 138.576 182.988 C 138.576 182.988 136.401 187.643 137.001 191.435 C 137.781 196.357 140.617 203.687 143.675 207.437 C 146.733 211.188 147.339 211.975 149.72 213.707 C 152.101 215.439 154.792 218.218 157.768 221.298 C 160.744 224.378 170.477 228.145 172.756 229.119 C 175.035 230.093 184.963 232.297 188.819 233.726 C 192.674 235.154 211.21 237.703 213.433 238.082 C 215.656 238.461 232.253 238.828 235.399 238.492 C 238.544 238.158 244.273 236.951 245.55 235.255 C 246.826 233.559 249.708 231.633 247.32 226.068 C 244.933 220.503 243.27 221.063 239.163 213.345 C 235.058 205.628 233.662 203.934 229.855 202.162 C 226.049 200.391 204.697 190.364 201.954 188.421 C 199.211 186.478 178.867 179.156 175.727 178.55 C 172.587 177.944 165.442 177.097 161.585 177.193 C 157.729 177.288 151.936 178.29 148.355 178.885 C 144.775 179.48 141.173 179.846 138.576 182.988 Z" transform="matrix(0.938628, -0.344932, 0.344932, 0.938628, -59.89472, 79.182051)">
      <title>帽子底部边缘</title>
    </path>
    <path style="fill: url(#gradient-1-0);" d="M 138.608 182.976 C 138.608 182.976 135.683 188.703 138.597 194.995 C 140.973 200.127 141.128 203.251 144.178 206.992 C 147.227 210.733 148.643 211.272 151.017 212.999 C 153.392 214.727 155.693 217.415 159.026 220.324 C 162.359 223.233 171.866 226.688 174.139 227.661 C 176.413 228.632 186.314 231.062 190.159 232.487 C 194.005 233.912 212.232 236.052 214.449 236.431 C 216.666 236.809 231.419 237.47 234.556 237.135 C 237.694 236.801 244.078 235.969 245.351 234.277 C 246.623 232.584 248.471 230.108 247.055 226.373 C 245.639 222.638 243.194 221.245 239.027 213.677 C 234.86 206.109 233.106 204.257 229.709 202.327 C 226.312 200.397 204.559 190.333 201.823 188.395 C 199.087 186.457 178.796 179.154 175.664 178.549 C 172.532 177.945 165.406 177.1 161.559 177.195 C 157.713 177.29 151.933 178.29 148.362 178.884 C 144.79 179.477 141.198 179.842 138.608 182.976 Z" transform="matrix(0.938628, -0.344932, 0.344932, 0.938628, -59.662216, 79.093731)">
      <title>帽子底部边缘1</title>
    </path>
    <path style="fill: url(#gradient-0-0);" d="M 141.394 184.457 C 141.394 184.457 138.398 189.071 141.213 195.084 C 143.509 199.989 143.6 203.44 146.545 207.015 C 149.49 210.59 150.857 211.105 153.151 212.756 C 155.446 214.406 157.669 216.975 160.888 219.754 C 164.107 222.535 173.289 225.837 175.485 226.765 C 177.681 227.693 187.245 230.015 190.959 231.377 C 194.674 232.739 212.28 234.784 214.421 235.146 C 216.563 235.507 230.813 236.139 233.844 235.819 C 236.874 235.5 243.04 234.704 244.269 233.088 C 245.499 231.471 246.428 228.588 245.183 225.599 C 243.94 222.609 241.848 221.458 238.127 214.153 C 234.406 206.849 232.442 204.4 229.161 202.557 C 225.879 200.712 204.869 191.095 202.226 189.243 C 199.583 187.391 179.983 180.412 176.958 179.834 C 173.933 179.257 166.605 178.831 162.89 178.922 C 159.175 179.013 154.494 179.717 151.044 180.285 C 147.594 180.851 143.896 181.461 141.394 184.457 Z" transform="matrix(0.938628, -0.344932, 0.344932, 0.938628, -59.703608, 79.262995)">
      <title>帽子底部边缘2</title>
    </path>
    <path style="fill: url(#color-0);" d="M 200.323 185.983 C 202.966 187.836 223.977 197.453 227.258 199.298 C 230.539 201.142 232.503 203.59 236.224 210.894 C 239.59 217.502 241.623 219.074 242.902 221.528 C 242.234 220.908 241.395 220.249 240.678 220.053 C 239.223 219.655 232.161 218.473 230.733 218.67 C 229.305 218.865 222.573 219.71 220.282 219.971 C 217.99 220.232 203.854 220.394 200.965 220.191 C 198.076 219.987 182.11 215.954 180.364 215.107 C 178.618 214.261 169.593 208.112 168.794 207.347 C 167.997 206.584 161.546 199.275 160.843 198.046 C 160.141 196.818 158.718 193.706 158.908 192.345 C 159.099 190.984 159.5 189.345 160.969 188.946 C 161.882 188.699 175.314 183.678 185.358 179.91 C 191.706 182.17 198.806 184.921 200.323 185.983 Z" transform="matrix(0.938628, -0.344932, 0.344932, 0.938628, -56.904914, 81.614134)">
      <title>顶部阴影</title>
    </path>
    <path style="fill: url(#gradient-4-0);" d="M 211.371 115.825 C 211.371 115.825 222.244 112.78 223.386 112.513 C 224.529 112.248 231.959 111.611 233.168 111.639 C 234.378 111.667 240.875 112.71 242.963 112.695 C 245.051 112.68 250.534 113.405 252.782 113.28 C 255.031 113.155 260.024 113.133 260.219 113.883 C 260.414 114.634 256.779 115.606 255.031 115.8 C 253.284 115.994 246.678 117.457 246.047 117.356 C 245.416 117.256 242.17 119.725 240.614 120.255 C 239.058 120.784 235.594 121.645 235.594 121.645 C 235.594 121.645 234.173 125.703 232.811 126.748 C 231.45 127.792 225.346 131.854 224.594 132.413 C 223.842 132.972 218.925 135.774 218.99 136.396 C 219.056 137.017 219.976 139.496 219.542 140.869 C 219.108 142.242 217.903 144.495 216.801 145.416 C 215.699 146.337 211.467 149.997 210.936 150.783 C 210.405 151.569 210.25 152.37 210.805 153.447 C 211.36 154.523 212.611 156.643 212.652 158.776 C 212.693 160.909 212.483 162.494 211.725 164.426 C 210.966 166.357 210.61 169.967 210.61 169.967 C 210.61 169.967 214.181 172.906 214.769 173.526 C 215.356 174.146 216.306 176.943 216.378 178.821 C 216.449 180.7 215.757 187.163 215.276 189.293 C 214.795 191.424 214.301 194.666 213.933 196.2 C 213.565 197.734 212.749 202.244 212.649 203.288 C 212.548 204.333 211.8 208.182 210.817 209.157 C 209.834 210.132 207.241 211.371 205.686 211.965 C 204.132 212.558 197.859 212.632 195.977 212.666 C 194.095 212.7 182.672 211.526 180.687 211.077 C 178.702 210.627 170.651 209.027 169.522 208.235 C 168.393 207.444 164.44 206.587 161.777 204.879 C 159.113 203.171 155.803 200.977 155.106 199.881 C 154.408 198.784 150.901 195.729 150.05 194.016 C 149.199 192.304 148.067 190.385 147.65 188.486 C 147.234 186.587 147.996 184.901 149.536 182.843 C 151.076 180.786 157.33 176.589 158.473 175.161 C 159.616 173.733 160.333 170.892 161.284 168.731 C 162.235 166.57 164.341 160.956 165.46 158.695 C 166.58 156.435 169.167 153.267 170.457 152.529 C 171.747 151.791 174.074 150.919 174.074 150.919 C 174.074 150.919 176.343 147.429 178.447 145.32 C 180.551 143.212 181.719 140.712 184.127 138.345 C 186.536 135.978 190.371 132.514 191.402 130.97 C 192.431 129.426 195.664 126.191 196.673 124.875 C 197.681 123.559 200.531 120.976 203.265 119.286 C 205.998 117.596 211.286 115.877 211.371 115.825 Z" transform="matrix(0.938628, -0.344932, 0.344932, 0.938628, -43.418831, 80.277068)">
      <title>顶部边缘</title>
    </path>
    <path style="fill: url(#gradient-3-0);" d="M 234.401 118.021 C 234.401 118.021 228.703 119.052 225.779 119.993 C 224.336 120.457 221.222 121.781 221.222 121.781 C 221.222 121.781 217.236 123.633 215.483 124.055 C 214.335 124.331 212.355 122.839 211.852 123.596 C 211.311 124.41 212.392 128.155 212.392 128.155 C 212.392 128.155 210.243 126.985 209.402 127.12 C 208.562 127.255 202.998 130.137 202.998 130.137 C 202.998 130.137 198.812 132.759 197.795 133.575 C 196.778 134.392 195.268 135.603 194.188 136.707 C 193.086 137.832 191.071 138.568 191.163 140.367 C 191.256 142.165 193.558 144.948 193.558 144.948 C 193.558 144.948 190.849 142.628 189.494 143.652 C 188.139 144.675 186.901 148.27 186.901 148.27 C 186.901 148.27 186.344 149.387 185.537 151.059 C 184.73 152.731 185.282 152.746 185.529 153.981 C 185.776 155.217 187.904 156.917 187.924 156.917 C 187.943 156.917 183.908 154.291 182.089 154.16 C 180.27 154.029 177.707 153.997 177.471 155.797 C 177.235 157.597 179.946 159.936 180.117 160.419 C 180.288 160.902 184.157 165.786 184.215 165.825 C 184.272 165.864 179.976 162.619 179.021 161.819 C 178.065 161.019 174.926 157.995 174.239 158.574 C 173.551 159.153 175.015 161.027 175.44 161.896 C 175.864 162.765 177.244 164.986 176.871 166.205 C 176.497 167.425 175.627 169.205 174.327 171.909 C 173.028 174.613 172.766 175.72 172.148 177.835 C 171.53 179.949 171.224 181.626 170.339 182.089 C 169.455 182.552 165.451 181.793 164.508 181.4 C 163.566 181.007 161.478 180.421 161.335 181.444 C 161.191 182.466 163.898 185.452 164.459 186.207 C 165.019 186.96 168.046 189.494 167.165 190.373 C 166.283 191.253 158.697 187.163 157.841 188.582 C 156.985 190 165.773 195.045 165.226 195.795 C 164.679 196.545 153.836 190.931 153.036 192.117 C 152.237 193.302 157.834 198.399 158.375 199.596 C 158.916 200.793 161.033 204.124 159.678 204.587 C 158.322 205.05 153.895 200.859 151.912 197.364 C 149.928 193.867 150.207 191.643 150.713 189.924 C 151.219 188.204 155.809 186.316 157.075 185.15 C 158.34 183.984 159.397 181.347 160.175 179.092 C 160.953 176.836 163.611 170.131 164.496 168.173 C 165.38 166.214 167.287 162.451 168.901 160.401 C 170.514 158.351 173.297 157.921 173.297 157.921 C 173.297 157.921 175.791 154.81 176.335 153.984 C 176.881 153.157 179.576 150.022 180.608 149.021 C 181.64 148.022 185.95 142.061 186.568 141.589 C 187.186 141.118 196.015 130.469 196.785 130.024 C 197.556 129.581 201.018 125.943 203.67 124.77 C 206.323 123.596 210.524 121.697 213.231 121.023 C 215.939 120.349 220.962 119.152 223.638 118.752 C 226.313 118.352 234.454 117.912 234.401 118.021 Z" transform="matrix(0.938628, -0.344932, 0.344932, 0.938628, -43.835682, 76.255791)">
      <title>顶部左侧阴影</title>
    </path>
    <path style="fill: url(#gradient-3-1);" d="M 244.362 116.593 C 244.824 117.73 235.618 120.457 235.618 120.457 C 235.618 120.457 234.384 123.804 233.156 124.935 C 231.929 126.067 226.21 130.816 225.135 131.193 C 224.061 131.571 220.583 133.74 219.985 132.47 C 219.387 131.201 217.552 126.461 217.552 126.461 L 218.022 132.095 C 218.022 132.095 218.083 134.535 218.158 135.063 C 218.233 135.591 218.913 137.042 218.536 139.512 C 218.159 141.983 215.946 144.303 214.258 145.829 C 212.569 147.354 210.751 149.843 209.149 149.716 C 207.545 149.591 202.143 147.207 202.143 147.207 C 202.143 147.207 205.93 151.123 206.684 151.575 C 207.438 152.027 210.93 154.614 211.424 158.382 C 211.917 162.152 210.473 167.699 209.582 170.9 C 208.69 174.102 212.687 180.743 213.161 180.222 C 211.293 176.694 210.53 171.456 211.16 171.479 C 211.16 171.479 214.728 174.089 215.633 177.035 C 216.538 179.98 214.279 192.118 213.625 194.949 C 212.971 197.779 211.411 207.662 207.927 209.407 C 204.446 211.152 188.401 211.576 183.591 210.832 C 178.781 210.088 165.868 205.465 164.206 203.369 C 162.546 201.274 162.324 197.464 163.217 196.059 C 164.11 194.655 166.827 195.399 169.792 196.559 C 172.756 197.718 175.795 198.222 176.261 196.803 C 176.728 195.384 171.754 192.96 170.257 191.656 C 168.761 190.351 166.645 189.181 167.509 188.056 C 168.373 186.931 174.579 190.398 175.622 189.276 C 176.663 188.153 168.57 183.846 168.726 182.592 C 168.882 181.339 170.802 182.341 171.97 181.495 C 173.14 180.649 175.157 174.887 176.076 172.769 C 176.996 170.653 178.765 161.716 182.125 162.901 C 185.486 164.086 186.321 164.349 189.404 165.664 C 192.486 166.98 198.834 171.115 198.871 171.091 C 200.777 169.919 190.089 163.547 188.366 161.916 C 186.642 160.285 180.659 153.095 181.58 152.816 C 182.5 152.537 188.828 155.965 190.301 154.877 C 191.774 153.79 188.72 150.34 189.215 148.064 C 189.708 145.789 191.616 141.395 192.711 141.546 C 193.806 141.697 198.494 144.019 198.295 143.335 C 198.096 142.651 194.605 138.006 196.389 135.761 C 198.171 133.516 200.794 130.896 202.607 129.742 C 204.42 128.588 210.564 124.229 212.195 125.324 C 213.826 126.419 216.22 133.112 216.573 132.42 C 217.047 131.841 214.711 124.107 214.785 123.05 C 214.859 121.992 218.939 120.988 219.694 120.834 C 220.449 120.68 225.925 117.654 228.861 117.359 C 231.798 117.063 233.691 116.683 236.68 116.554 C 239.669 116.425 244.137 116.039 244.362 116.593 Z" transform="matrix(0.938628, -0.344932, 0.344932, 0.938628, -43.988403, 80.256444)">
      <title>顶部右侧阴影</title>
    </path>
    <path style="fill: url(#gradient-6-0);" d="M 183.253 140.995 C 183.407 140.843 183.568 140.687 183.733 140.527 L 184.59 141.903 L 188.717 141.882 L 186.09 145.142 L 187.378 149.15 L 183.54 147.606 L 180.21 150.104 L 180.464 145.891 L 179.737 145.355 C 180.777 143.931 181.784 142.438 183.253 140.995 Z M 163.574 191.877 L 159.578 191.357 L 156.988 194.478 L 156.201 190.441 L 152.472 188.863 L 155.982 186.888 L 156.265 182.792 L 159.222 185.608 L 163.127 184.654 L 161.444 188.371 Z M 185.443 204.968 L 181.736 201.864 L 177.104 203.35 L 178.913 198.76 L 176.158 194.757 L 180.983 195.024 L 183.912 191.064 L 185.085 195.82 L 189.65 197.375 L 185.551 200.047 Z M 198.328 189.565 L 195.501 185.31 L 190.438 186.21 L 193.629 182.095 L 191.316 177.528 L 196.115 179.241 L 199.748 175.518 L 199.524 180.69 L 204.082 182.958 L 199.144 184.442 Z M 170.765 171.516 L 168.832 169.693 L 166.373 170.746 L 167.505 168.286 L 165.795 166.244 L 168.428 166.547 L 169.831 164.232 L 170.326 166.88 L 172.903 167.49 L 170.575 168.823 Z M 196.988 161.621 L 193.841 158.936 L 189.889 160.244 L 191.472 156.331 L 189.084 152.928 L 193.209 153.196 L 195.685 149.785 L 196.652 153.863 L 200.57 155.157 L 197.042 157.411 Z M 210.142 149.951 L 208.074 148.188 L 205.477 149.047 L 206.517 146.475 L 204.947 144.24 L 207.658 144.416 L 209.285 142.174 L 209.921 144.854 L 212.496 145.705 L 210.178 147.185 Z M 205.205 137.54 L 202.142 134.927 L 198.296 136.199 L 199.837 132.391 L 197.513 129.081 L 201.527 129.34 L 203.937 126.021 L 204.878 129.99 L 208.691 131.249 L 205.258 133.442 Z M 236.558 119.743 L 235.023 117.736 L 232.497 118.011 L 233.943 115.878 L 233.308 114.379 C 234.317 114.495 235.829 114.702 237.348 114.895 L 237.352 115.069 L 239.526 116.344 L 237.13 117.237 Z M 210.645 191.734 L 210.942 188.418 L 208.377 186.265 L 211.685 185.485 L 213.008 182.41 L 214.755 185.244 L 215.291 185.283 C 215.129 187.04 214.897 188.993 214.672 190.444 L 213.552 189.989 Z M 203.786 189.339 C 210.743 192.78 211.58 202.109 205.292 206.132 C 202.118 208.162 197.944 208.167 194.587 206.144 C 203.225 205.812 208.16 196.794 203.786 189.339 Z M 184.728 181.855 C 177.058 180.665 173.455 172.019 178.243 166.293 C 180.66 163.402 184.641 162.142 188.449 163.062 C 180.313 165.976 178.315 176.06 184.728 181.855 Z" transform="matrix(0.938628, -0.344932, 0.344932, 0.938628, -43.511487, 77.488369)">
      <title>星星与月亮</title>
    </path>
    <path style="fill-opacity: 0.19;" d="M 233.984 123.211 C 233.248 123.89 230.893 125.872 228.896 127.431 C 228.028 127.998 226.959 128.781 225.977 129.464 C 225.972 129.466 225.968 129.467 225.964 129.469 C 225.334 129.691 223.877 130.527 222.66 130.926 C 221.852 130.86 220.962 130.711 220.962 130.711 C 220.962 130.711 220.909 130.729 220.822 130.764 C 220.819 130.758 220.816 130.752 220.813 130.746 C 220.511 130.104 219.892 128.576 219.356 127.222 C 219.522 127.198 219.713 127.202 219.934 127.238 C 221.195 127.441 221.193 128.207 224.145 127.026 C 227.096 125.845 225.6 126.647 228.024 125.301 C 230.447 123.955 232.716 122.827 233.343 122.482 C 233.755 122.255 234.817 121.453 235.477 120.957 C 235.226 121.461 234.94 121.977 234.641 122.416 L 234.282 122.896 C 234.183 123.013 234.084 123.12 233.984 123.211 Z M 218.85 130.371 C 218.85 130.371 218.911 132.81 218.986 133.339 C 219.01 133.503 219.092 133.756 219.182 134.103 C 219.203 134.266 219.24 134.432 219.3 134.608 C 219.443 135.292 219.55 136.216 219.417 137.392 C 219.394 137.508 219.367 137.615 219.337 137.71 C 219.098 138.468 218.706 140.262 217.325 141.414 C 215.943 142.565 216.183 142.746 214.935 143.974 C 214.05 144.844 213.859 145.19 213.558 145.623 C 212.338 146.877 211.105 148.081 209.977 147.992 C 209.679 147.969 209.252 147.868 208.751 147.719 C 207.628 147.315 206.091 146.802 205.299 146.331 C 204.488 145.849 203.951 145.266 203.085 145.533 C 203.011 145.502 202.97 145.484 202.97 145.484 C 202.97 145.484 202.993 145.507 203.035 145.55 C 202.866 145.607 202.685 145.697 202.487 145.825 C 201.239 146.635 199.75 147.213 198.307 149.176 C 196.865 151.14 195.615 153.014 196.04 154.189 C 196.465 155.363 197.695 157.465 198.991 158.479 C 200.287 159.493 203.187 160.307 203.632 161.301 C 204.075 162.294 205.87 163.311 205.974 164.252 C 206.079 165.194 206.192 166.627 205.544 168.034 C 204.896 169.441 204.112 170.397 203.832 171.799 C 203.552 173.2 202.624 175.744 202.598 177.299 C 202.571 178.855 203.056 182.44 203.682 183.436 C 204.308 184.431 204.647 185.647 205.82 186.438 C 206.992 187.228 207.67 187.838 208.35 188.334 C 209.028 188.83 206.373 189.62 205.177 190.168 C 203.982 190.717 202.209 190.997 202.209 190.997 C 202.209 190.997 199.306 191.108 199.829 191.761 C 200.351 192.415 203.261 193.902 203.968 194.45 C 204.675 194.999 208.388 197.498 206.661 198.046 C 204.934 198.595 201.534 199.192 200.259 199.322 C 198.984 199.454 195.185 198.572 198.138 200.897 C 201.09 203.221 203.894 204.244 204.365 204.871 C 204.835 205.498 205.852 206.51 205.241 207.398 C 204.81 208.024 204.931 208.443 204.578 208.689 C 199.368 209.426 191.22 209.623 186.587 209.324 C 185.846 209.102 185.317 208.851 185.317 208.851 C 185.317 208.851 189.035 208.046 190.337 207.939 C 191.638 207.833 193.532 206.967 193.555 206.09 C 193.579 205.213 192.25 204.018 191.427 203.38 C 190.604 202.743 186.311 201.617 185.487 200.82 C 184.663 200.022 183.621 199.925 182.639 198.844 C 181.658 197.761 182.209 196.888 183.175 196.091 C 184.141 195.293 187.412 194.245 188.759 194.033 C 190.107 193.82 190.357 193.535 191.694 192.961 C 193.031 192.387 194.172 192.256 193.11 191.512 C 192.048 190.768 191.02 190.562 189.766 190.189 C 188.513 189.814 187.487 189.454 186.638 189.162 C 185.787 188.87 184.178 188.537 183.407 187.926 C 182.638 187.314 181.492 186.392 184.285 186.279 C 187.079 186.166 190.866 185.28 191.546 185.227 C 192.226 185.173 192.854 185.276 194.542 184.527 C 196.229 183.779 196.327 183.65 197.692 182.291 C 199.057 180.931 198.848 179.141 198.848 179.141 C 198.848 179.141 199.316 176.918 199.54 175.907 C 199.765 174.896 198.266 173.678 198.266 173.678 C 198.266 173.678 198.038 173.443 195.647 172.516 C 193.257 171.59 191.605 170.956 189.741 169.76 C 187.877 168.562 186.035 167.45 185.291 166.599 C 184.548 165.749 183.364 164.773 182.799 163.423 C 182.392 162.453 182.32 161.33 183.337 161.312 C 184.153 161.599 184.813 161.83 185.4 162.039 C 187.317 163.01 189.861 164.064 191.683 164.634 C 194.96 166.326 199.667 169.387 199.699 169.366 C 200.788 168.696 197.764 166.328 194.651 164.117 C 194.528 163.767 194.144 163.369 193.436 163.014 C 191.904 162.249 189.3 160.139 187.967 158.902 C 186.166 156.901 183.451 153.56 182.586 151.974 C 182.639 151.656 182.884 151.261 183.475 151.287 C 183.814 151.396 184.21 151.54 184.64 151.702 C 184.743 151.762 184.849 151.829 184.961 151.904 C 187.111 153.347 188.688 154.391 188.688 154.391 C 188.688 154.391 192.144 156.942 193.137 155.96 C 194.13 154.977 194.255 152.811 195.187 151.096 C 196.119 149.38 198.324 147.184 198.855 146.068 C 199.388 144.952 201.151 145.318 200.354 143.518 C 199.855 142.39 199.374 141.978 199.098 141.541 C 199.067 141.468 199.017 141.372 198.952 141.254 C 198.881 141.068 198.848 140.856 198.86 140.573 C 198.912 139.405 199.094 139.522 200.663 140.592 C 202.232 141.663 205.999 143.527 207.251 142.625 C 208.503 141.722 210.309 142.166 211.147 140.13 C 211.986 138.095 213.601 137.947 215.366 136.302 C 217.132 134.658 217.259 134.1 217.498 132.907 C 217.737 131.712 218.256 130.715 218.307 129.28 C 218.332 128.602 218.415 128.065 218.628 127.707 Z" transform="matrix(0.938628, -0.344932, 0.344932, 0.938628, -44.170811, 82.160886)">
      <title>顶部暗部</title>
    </path>
  </g>
</svg>